<svg preserveAspectRatio="none" width="100%" height="100%" overflow="visible" style="display: block;" viewBox="0 0 23.401 22.3574" fill="none" xmlns="http://www.w3.org/2000/svg">
<g id="Group">
<path id="Vector" d="M0.961602 9.83739V1.05997C0.961602 1.00807 1.00531 0.964355 1.05721 0.964355H6.23953C6.29143 0.964355 6.33514 1.00807 6.33514 1.05997V11.5393C6.33514 13.621 7.68467 15.506 9.67892 16.0988C13.8887 17.35 17.074 14.629 17.074 10.9383V1.05997C17.074 1.00807 17.1177 0.964355 17.1696 0.964355H22.352C22.4039 0.964355 22.4476 1.00807 22.4476 1.05997V10.9383C22.4476 21.5078 7.01537 26.2858 1.85218 14.5416C1.20473 13.0692 0.964332 11.4464 0.964332 9.83739H0.961602Z" fill="var(--fill-0, #4D42B3)"/>
<path id="Vector_2" d="M11.6049 22.3574C7.05362 22.3574 3.03235 19.6201 0.969806 14.9268C0.32509 13.4653 0 11.7524 0 9.83464V0.0983424L1.05449 0.00273451H7.19568L7.2913 1.05722V11.5366C7.2913 13.2139 8.38403 14.711 9.94938 15.1754C11.6349 15.6808 13.2112 15.4704 14.3832 14.5962C15.4814 13.7767 16.1124 12.4436 16.1124 10.9356V0.0956163L17.1669 0H23.3081L23.401 1.05449V10.9356C23.401 16.3474 19.5546 20.9369 14.0444 22.0952C13.2194 22.27 12.4053 22.3547 11.6049 22.3547V22.3574ZM1.92049 1.92322V9.83464C1.92049 11.4847 2.19094 12.9353 2.72638 14.1537C5.2069 19.7977 9.99582 20.9806 13.651 20.2184C17.4237 19.4262 21.4832 16.1835 21.4832 10.9356V1.92049H18.0302V10.9356C18.0302 13.0528 17.1177 14.9459 15.5305 16.1343C13.8586 17.38 11.6841 17.6914 9.40301 17.0167C7.02904 16.3119 5.37081 14.0581 5.37081 11.5366V1.92049H1.91776L1.92049 1.92322Z" fill="var(--fill-0, #4D42B3)"/>
</g>
</svg>
