<svg preserveAspectRatio="none" width="100%" height="100%" overflow="visible" style="display: block;" viewBox="0 0 23.4092 22.8303" fill="none" xmlns="http://www.w3.org/2000/svg">
<g id="Group">
<path id="Vector" d="M14.6427 1.3772C7.75573 -0.597924 0.961628 4.6964 0.961628 11.4113C0.961628 17.6481 5.18233 21.8688 11.2279 21.8688C13.7221 21.8688 15.9294 21.0055 17.1751 19.6614V21.2924C17.1751 21.3497 17.2134 21.388 17.2707 21.388H22.3547C22.4121 21.388 22.4503 21.3497 22.4503 21.3115V12.198C22.4503 7.28619 19.3606 2.71854 14.64 1.3772H14.6427ZM11.706 16.8804C8.63538 16.8804 6.33243 14.4819 6.33243 11.4113C6.33243 8.34068 8.63538 5.94211 11.706 5.94211C14.7766 5.94211 17.0795 8.24506 17.0795 11.4113C17.0795 14.5775 14.8722 16.8804 11.706 16.8804Z" fill="var(--fill-0, #4D42B3)"/>
<path id="Vector_2" d="M11.2252 22.8303C4.61682 22.8303 0 18.137 0 11.414C0 7.88987 1.68282 4.598 4.61409 2.39067C7.6 0.14236 11.3508 -0.562453 14.905 0.456525C19.9124 1.88255 23.4092 6.70972 23.4092 12.2007V22.273L22.3547 22.3495H16.3091L16.2408 21.5901C14.8476 22.3823 13.0883 22.8276 11.2252 22.8276V22.8303ZM11.6786 1.91806C9.58058 1.91806 7.51804 2.60375 5.76966 3.9205C3.32466 5.7645 1.92049 8.49362 1.92049 11.4112C1.92049 17.0935 5.66038 20.9099 11.2252 20.9099C13.3724 20.9099 15.383 20.1804 16.4703 19.0112L18.134 17.2191V20.4318H21.4914V12.2007C21.4914 7.56205 18.5656 3.49161 14.3804 2.30052C13.4899 2.04373 12.5829 1.91806 11.6814 1.91806H11.6786ZM11.706 17.842C8.15456 17.842 5.37354 15.0173 5.37354 11.414C5.37354 7.81065 8.09446 4.98592 11.706 4.98592C15.3175 4.98592 18.0384 7.68772 18.0384 11.414C18.0384 15.1402 15.3147 17.842 11.706 17.842ZM11.706 6.90368C9.14895 6.90368 7.29403 8.79958 7.29403 11.414C7.29403 14.0283 9.18993 15.9242 11.706 15.9242C14.222 15.9242 16.1206 14.0283 16.1206 11.414C16.1206 8.79958 14.3067 6.90368 11.706 6.90368Z" fill="var(--fill-0, #4D42B3)"/>
</g>
</svg>
