<svg preserveAspectRatio="none" width="100%" height="100%" overflow="visible" style="display: block;" viewBox="0 0 23.3901 22.8331" fill="none" xmlns="http://www.w3.org/2000/svg">
<g id="Group">
<path id="Vector" d="M14.6399 1.37715C7.75292 -0.597975 0.958826 4.69634 0.958826 11.4112C0.958826 17.648 5.17952 21.8687 11.2251 21.8687C13.7193 21.8687 15.9266 21.0055 17.1532 19.6614V21.2923C17.1532 21.3497 17.2106 21.3879 17.2679 21.3879H22.3519C22.3902 21.3879 22.4284 21.3497 22.4284 21.3114V12.198C22.4284 7.28614 19.3578 2.71849 14.6372 1.37715H14.6399ZM11.7032 16.8804C8.63258 16.8804 6.32964 14.4818 6.32964 11.4112C6.32964 8.34063 8.63258 5.94206 11.7032 5.94206C14.7738 5.94206 17.0576 8.24501 17.0576 11.4112C17.0576 14.5774 14.8694 16.8804 11.7032 16.8804Z" fill="var(--fill-0, #4D42B3)"/>
<path id="Vector_2" d="M11.2224 22.8303C4.61409 22.8303 0 18.137 0 11.414C0 7.88987 1.68009 4.60073 4.61409 2.39067C7.6 0.14236 11.3508 -0.562453 14.9049 0.456525C19.9015 1.87982 23.3901 6.70699 23.3901 12.2007V22.2758L22.3547 22.3523H16.3118L16.2299 21.5983C14.8476 22.3878 13.091 22.8331 11.2279 22.8331L11.2224 22.8303ZM11.6786 1.91806C9.57785 1.91806 7.51804 2.60376 5.76693 3.92324C3.32193 5.76723 1.91776 8.49634 1.91776 11.414C1.91776 17.0962 5.65766 20.9126 11.2224 20.9126C13.3751 20.9126 15.3748 20.1859 16.443 19.0194L18.1094 17.1945V20.4345H21.4668V12.2035C21.4668 7.56479 18.5492 3.49434 14.375 2.30326C13.4844 2.04646 12.5774 1.92079 11.6786 1.92079V1.91806ZM11.7032 17.8393C8.15183 17.8393 5.37081 15.0145 5.37081 11.4112C5.37081 7.80792 8.09446 4.9832 11.7032 4.9832C15.312 4.9832 18.0165 7.68499 18.0165 11.4112C18.0165 15.1375 15.3038 17.8393 11.7032 17.8393ZM11.7032 6.90368C9.14622 6.90368 7.2913 8.79958 7.2913 11.4112C7.2913 14.0229 9.18719 15.9215 11.7032 15.9215C14.2193 15.9215 16.096 14.0256 16.096 11.4112C16.096 8.79685 14.2903 6.90368 11.7032 6.90368Z" fill="var(--fill-0, #4D42B3)"/>
</g>
</svg>
