<svg preserveAspectRatio="none" width="100%" height="100%" overflow="visible" style="display: block;" viewBox="0 0 11.512 22.3465" fill="none" xmlns="http://www.w3.org/2000/svg">
<g id="Group">
<path id="Vector" d="M10.5531 1.05721V5.98819C10.5531 6.04829 10.5149 6.08653 10.4575 6.08653H8.57801C7.27219 6.18488 6.33243 7.14649 6.33243 8.62168V21.2729C6.33243 21.333 6.27506 21.3903 6.21769 21.3903H1.05724C0.999869 21.3903 0.961621 21.3302 0.961621 21.2729V8.62168C0.961621 4.4966 3.58966 1.52982 7.31316 1.03809C7.6765 0.977987 8.06169 0.958861 8.44415 0.958861H10.4384C10.4958 0.958861 10.5531 0.997112 10.5531 1.05721Z" fill="var(--fill-0, #4D42B3)"/>
<path id="Vector_2" d="M6.21767 22.3465H0.0956163L0 21.2702V8.61898C0 4.08138 2.88756 0.652913 7.18475 0.0874211C7.56994 0.0245886 8.00431 0 8.4414 0H11.3973L11.512 1.05723V6.94709L10.4575 7.04543H8.57799C7.79942 7.10826 7.2913 7.69561 7.2913 8.61898V22.229L6.21767 22.3465ZM1.91775 20.4287H5.37081V8.61898C5.37081 6.70122 6.66024 5.267 8.50424 5.12768H9.59151V1.91776H8.4414C8.11085 1.91776 7.77757 1.93142 7.4634 1.98332C4.13328 2.42315 1.91775 5.0867 1.91775 8.61898V20.4287Z" fill="var(--fill-0, #4D42B3)"/>
</g>
</svg>
