<svg preserveAspectRatio="none" width="100%" height="100%" overflow="visible" style="display: block;" viewBox="0 0 16.945 11.9459" fill="none" xmlns="http://www.w3.org/2000/svg">
<path id="Vector" d="M12.7824 5.63519C12.19 6.47713 10.3354 9.14527 9.42555 9.89962C8.82667 10.3901 8.22012 10.8094 7.61358 11.1445C6.58661 11.6579 5.44359 11.9459 4.23816 11.9459C3.74 11.9459 3.25827 11.8988 2.79186 11.7981C1.93679 11.635 1.15178 11.3131 0.536476 10.7854C0.136856 10.4 0.0853982 9.73758 0.0394146 9.26351C0.0164228 9.02265 0 8.78178 0 8.53216C0 5.73263 1.57877 3.2517 4.01262 1.69592C4.33122 1.49337 4.66624 1.29959 5.0155 1.12769C6.47712 0.412758 8.17304 0 9.98502 0C10.6069 0 11.2211 0.0470792 11.8123 0.147805C12.2481 0.210212 12.6751 0.303273 13.0878 0.420421C13.4688 0.521147 13.8345 0.645961 14.1849 0.786102L14.1925 0.793765C14.6907 0.979889 15.1494 1.21419 15.6005 1.47038C16.0746 1.75066 16.5333 2.08131 16.945 2.42399C16.6537 2.36816 16.0538 2.41962 15.479 2.72508C14.5965 3.19367 13.4283 4.7188 12.7835 5.63628L12.7824 5.63519Z" fill="url(#paint0_linear_3630_21000)"/>
<defs>
<linearGradient id="paint0_linear_3630_21000" x1="0.86931" y1="11.1445" x2="11.1543" y2="1.55359" gradientUnits="userSpaceOnUse">
<stop stop-color="#897DFC"/>
<stop offset="0.14" stop-color="#7061E0"/>
<stop offset="0.31" stop-color="#5947C6"/>
<stop offset="0.48" stop-color="#4935B3"/>
<stop offset="0.65" stop-color="#402AA8"/>
<stop offset="0.85" stop-color="#3D27A5"/>
</linearGradient>
</defs>
</svg>
