<svg width="351" height="143" viewBox="0 0 351 143" fill="none" xmlns="http://www.w3.org/2000/svg">
<path d="M16 0.5H335C343.56 0.5 350.5 7.43959 350.5 16V126.246C350.5 134.807 343.56 141.746 335 141.746H16C7.43959 141.746 0.5 134.807 0.5 126.246V16C0.500015 7.4396 7.4396 0.5 16 0.5Z" fill="white"/>
<path d="M16 0.5H335C343.56 0.5 350.5 7.43959 350.5 16V126.246C350.5 134.807 343.56 141.746 335 141.746H16C7.43959 141.746 0.5 134.807 0.5 126.246V16C0.500015 7.4396 7.4396 0.5 16 0.5Z" stroke="#D2CDFE"/>
<path d="M17.6711 31.6712C17.6711 23.9392 23.9392 17.6712 31.6711 17.6712H43.6702C51.4021 17.6712 57.6702 23.9392 57.6702 31.6712V43.6702C57.6702 51.4022 51.4021 57.6702 43.6702 57.6702H31.6711C23.9392 57.6702 17.6711 51.4022 17.6711 43.6702V31.6712Z" fill="#D2CDFE"/>
<path d="M35.945 40.5873C35.8706 40.2989 35.7203 40.0357 35.5097 39.8251C35.2991 39.6145 35.0359 39.4642 34.7475 39.3898L29.6352 38.0715C29.5479 38.0468 29.4712 37.9942 29.4165 37.9219C29.3619 37.8496 29.3323 37.7614 29.3323 37.6707C29.3323 37.58 29.3619 37.4918 29.4165 37.4195C29.4712 37.3472 29.5479 37.2946 29.6352 37.2699L34.7475 35.9507C35.0358 35.8764 35.2989 35.7262 35.5095 35.5158C35.7201 35.3054 35.8705 35.0423 35.945 34.7541L37.2633 29.6417C37.2878 29.5542 37.3403 29.477 37.4127 29.4221C37.4852 29.3671 37.5736 29.3374 37.6645 29.3374C37.7555 29.3374 37.8439 29.3671 37.9164 29.4221C37.9888 29.477 38.0413 29.5542 38.0658 29.6417L39.3833 34.7541C39.4577 35.0425 39.608 35.3057 39.8186 35.5163C40.0292 35.7269 40.2923 35.8772 40.5807 35.9516L45.6931 37.269C45.781 37.2933 45.8585 37.3457 45.9138 37.4183C45.969 37.4908 45.999 37.5795 45.999 37.6707C45.999 37.7619 45.969 37.8506 45.9138 37.9231C45.8585 37.9957 45.781 38.0481 45.6931 38.0724L40.5807 39.3898C40.2923 39.4642 40.0292 39.6145 39.8186 39.8251C39.608 40.0357 39.4577 40.2989 39.3833 40.5873L38.065 45.6997C38.0405 45.7872 37.988 45.8644 37.9155 45.9193C37.8431 45.9743 37.7546 46.004 37.6637 46.004C37.5728 46.004 37.4844 45.9743 37.4119 45.9193C37.3395 45.8644 37.287 45.7872 37.2625 45.6997L35.945 40.5873Z" stroke="#6D5DFD" stroke-width="1.66663" stroke-linecap="round" stroke-linejoin="round"/>
<path d="M44.3306 30.1709V33.5041" stroke="#6D5DFD" stroke-width="1.66663" stroke-linecap="round" stroke-linejoin="round"/>
<path d="M45.9971 31.8375H42.6638" stroke="#6D5DFD" stroke-width="1.66663" stroke-linecap="round" stroke-linejoin="round"/>
<path d="M30.9976 41.8373V43.5039" stroke="#6D5DFD" stroke-width="1.66663" stroke-linecap="round" stroke-linejoin="round"/>
<path d="M31.8309 42.6706H30.1643" stroke="#6D5DFD" stroke-width="1.66663" stroke-linecap="round" stroke-linejoin="round"/>
<path d="M75.4351 32.9778C74.7196 32.9778 74.077 32.8593 73.5073 32.6223C72.9377 32.3807 72.45 32.0344 72.0444 31.5832C71.6434 31.132 71.3358 30.5897 71.1216 29.9563C70.9074 29.3182 70.8003 28.6005 70.8003 27.8029V27.7893C70.8003 26.7365 70.9894 25.8251 71.3677 25.0549C71.7459 24.2802 72.2791 23.6809 72.9673 23.257C73.66 22.8332 74.4735 22.6213 75.4077 22.6213C76.1688 22.6213 76.8478 22.758 77.4448 23.0315C78.0464 23.3003 78.5386 23.6786 78.9214 24.1662C79.3042 24.6493 79.548 25.2121 79.6528 25.8547L79.6665 25.9231H77.9165L77.896 25.8547C77.7365 25.3124 77.4403 24.8931 77.0073 24.5969C76.5744 24.2961 76.0412 24.1457 75.4077 24.1457C74.8335 24.1457 74.3345 24.2938 73.9106 24.5901C73.4914 24.8863 73.1678 25.3056 72.9399 25.8479C72.7121 26.3902 72.5981 27.0328 72.5981 27.7756V27.7893C72.5981 28.3544 72.6642 28.8625 72.7964 29.3137C72.9285 29.7649 73.1177 30.15 73.3638 30.469C73.6144 30.788 73.9152 31.0318 74.2661 31.2004C74.6216 31.369 75.0203 31.4533 75.4624 31.4533C75.9637 31.4533 76.4035 31.3554 76.7817 31.1594C77.1646 30.9634 77.4631 30.69 77.6772 30.3391C77.896 29.9882 78.0099 29.5803 78.019 29.1154V28.9104H75.6538V27.5637H79.7417V28.7942C79.7417 29.4322 79.6414 30.0087 79.4409 30.5237C79.2404 31.0386 78.951 31.4784 78.5728 31.843C78.1991 32.2076 77.7456 32.4878 77.2124 32.6838C76.6838 32.8798 76.0913 32.9778 75.4351 32.9778ZM84.8208 32.882C84.078 32.882 83.4399 32.7248 82.9067 32.4104C82.3781 32.0959 81.9702 31.6493 81.6831 31.0705C81.396 30.4918 81.2524 29.8059 81.2524 29.0129V29.0061C81.2524 28.2222 81.3937 27.5386 81.6763 26.9553C81.9634 26.372 82.369 25.9208 82.8931 25.6018C83.4172 25.2782 84.0324 25.1164 84.7388 25.1164C85.4497 25.1164 86.0604 25.2737 86.5708 25.5881C87.0858 25.898 87.4823 26.3332 87.7603 26.8938C88.0382 27.4543 88.1772 28.1106 88.1772 28.8625V29.4231H82.1069V28.2815H87.3433L86.5366 29.3479V28.6711C86.5366 28.1744 86.4614 27.7619 86.311 27.4338C86.1606 27.1057 85.951 26.8596 85.6821 26.6955C85.4178 26.5315 85.1102 26.4494 84.7593 26.4494C84.4084 26.4494 84.0962 26.536 83.8228 26.7092C83.5539 26.8778 83.3397 27.1285 83.1802 27.4612C83.0252 27.7893 82.9478 28.1926 82.9478 28.6711V29.3547C82.9478 29.815 83.0252 30.2092 83.1802 30.5373C83.3351 30.8609 83.5539 31.1115 83.8364 31.2893C84.1235 31.4625 84.4631 31.549 84.855 31.549C85.1603 31.549 85.4224 31.5057 85.6411 31.4192C85.8644 31.328 86.0444 31.2209 86.1812 31.0979C86.3179 30.9703 86.4136 30.8495 86.4683 30.7356L86.4888 30.6877H88.1021L88.0884 30.7492C88.0291 30.9908 87.9198 31.2369 87.7603 31.4875C87.6053 31.7336 87.3934 31.9638 87.1245 32.1779C86.8602 32.3876 86.5366 32.5585 86.1538 32.6906C85.771 32.8182 85.3267 32.882 84.8208 32.882ZM92.8188 32.7658C91.9621 32.7658 91.3446 32.6086 90.9663 32.2942C90.5881 31.9797 90.3989 31.4647 90.3989 30.7492V26.5793H89.2368V25.26H90.3989V23.4279H92.1284V25.26H93.7007V26.5793H92.1284V30.3459C92.1284 30.7151 92.2059 30.9862 92.3608 31.1594C92.5203 31.328 92.7756 31.4123 93.1265 31.4123C93.2495 31.4123 93.3498 31.41 93.4272 31.4055C93.5093 31.3964 93.6004 31.3873 93.7007 31.3781V32.6906C93.5822 32.7134 93.4455 32.7317 93.2905 32.7453C93.1401 32.759 92.9829 32.7658 92.8188 32.7658ZM98.5815 32.7317L102.082 22.8674H103.544V24.6994H103.018L100.427 32.7317H98.5815ZM100.345 30.1819L100.803 28.8215H105.329L105.787 30.1819H100.345ZM105.725 32.7317L103.134 24.6994V22.8674H104.064L107.571 32.7317H105.725ZM109.266 32.7317V22.8674H111.03V32.7317H109.266ZM120.224 32.882C119.472 32.882 118.83 32.7271 118.296 32.4172C117.763 32.1073 117.355 31.6607 117.073 31.0774C116.79 30.494 116.649 29.7968 116.649 28.9856V28.9719C116.649 28.1653 116.79 27.4748 117.073 26.9006C117.355 26.3264 117.763 25.8866 118.296 25.5813C118.83 25.2714 119.47 25.1164 120.217 25.1164C120.86 25.1164 121.411 25.2281 121.872 25.4514C122.336 25.6701 122.703 25.9755 122.972 26.3674C123.246 26.7548 123.414 27.2082 123.478 27.7278V27.7551H121.872L121.865 27.7346C121.787 27.37 121.61 27.0715 121.332 26.8391C121.058 26.6067 120.689 26.4904 120.224 26.4904C119.837 26.4904 119.504 26.5884 119.226 26.7844C118.953 26.9804 118.743 27.2629 118.597 27.632C118.451 28.0012 118.378 28.4478 118.378 28.9719V28.9856C118.378 29.5142 118.451 29.9677 118.597 30.3459C118.748 30.7196 118.959 31.0067 119.233 31.2072C119.506 31.4032 119.837 31.5012 120.224 31.5012C120.666 31.5012 121.022 31.4009 121.291 31.2004C121.564 30.9999 121.753 30.7037 121.858 30.3117L121.872 30.2844L123.471 30.2776L123.464 30.3391C123.382 30.8449 123.205 31.2893 122.931 31.6721C122.662 32.0549 122.302 32.3534 121.851 32.5676C121.4 32.7772 120.858 32.882 120.224 32.882ZM128.325 32.882C127.582 32.882 126.942 32.7271 126.404 32.4172C125.866 32.1028 125.451 31.6561 125.16 31.0774C124.873 30.4986 124.729 29.8059 124.729 28.9992V28.9856C124.729 28.188 124.875 27.4999 125.167 26.9211C125.458 26.3378 125.871 25.8912 126.404 25.5813C126.942 25.2714 127.582 25.1164 128.325 25.1164C129.068 25.1164 129.706 25.2714 130.239 25.5813C130.777 25.8912 131.191 26.3355 131.483 26.9143C131.775 27.4931 131.92 28.1835 131.92 28.9856V28.9992C131.92 29.8059 131.775 30.4986 131.483 31.0774C131.196 31.6561 130.783 32.1028 130.246 32.4172C129.712 32.7271 129.072 32.882 128.325 32.882ZM128.325 31.5012C128.717 31.5012 129.049 31.4032 129.323 31.2072C129.601 31.0067 129.813 30.7219 129.958 30.3528C130.104 29.9791 130.177 29.5302 130.177 29.0061V28.9924C130.177 28.4638 130.104 28.0149 129.958 27.6457C129.813 27.272 129.601 26.9872 129.323 26.7912C129.049 26.5907 128.717 26.4904 128.325 26.4904C127.933 26.4904 127.598 26.5907 127.32 26.7912C127.042 26.9872 126.83 27.272 126.684 27.6457C126.538 28.0149 126.465 28.4638 126.465 28.9924V29.0061C126.465 29.5302 126.538 29.9791 126.684 30.3528C126.83 30.7265 127.04 31.0113 127.313 31.2072C127.591 31.4032 127.928 31.5012 128.325 31.5012ZM135.667 32.8547C135.197 32.8547 134.776 32.7636 134.402 32.5813C134.033 32.399 133.741 32.1415 133.527 31.8088C133.317 31.4716 133.212 31.0751 133.212 30.6194V30.6057C133.212 30.1636 133.322 29.7831 133.541 29.4641C133.759 29.1405 134.081 28.8876 134.504 28.7053C134.928 28.523 135.443 28.4159 136.049 28.384L138.811 28.2131V29.3342L136.289 29.4983C135.81 29.5256 135.457 29.6259 135.229 29.799C135.001 29.9722 134.887 30.2138 134.887 30.5237V30.5373C134.887 30.8563 135.008 31.1047 135.25 31.2824C135.496 31.4602 135.808 31.549 136.186 31.549C136.528 31.549 136.833 31.4807 137.102 31.344C137.371 31.2072 137.583 31.0227 137.738 30.7903C137.893 30.5533 137.97 30.2867 137.97 29.9904V27.6252C137.97 27.2515 137.852 26.9667 137.615 26.7707C137.378 26.5702 137.027 26.4699 136.562 26.4699C136.175 26.4699 135.858 26.5383 135.612 26.675C135.366 26.8072 135.199 26.9963 135.113 27.2424L135.106 27.2697H133.5L133.506 27.2082C133.561 26.789 133.725 26.4221 133.999 26.1076C134.272 25.7932 134.634 25.5494 135.085 25.3762C135.537 25.203 136.056 25.1164 136.644 25.1164C137.291 25.1164 137.838 25.2167 138.285 25.4172C138.731 25.6132 139.071 25.9003 139.303 26.2785C139.536 26.6522 139.652 27.1011 139.652 27.6252V32.7317H137.97V31.7063H137.854C137.717 31.9432 137.54 32.1483 137.321 32.3215C137.107 32.4947 136.861 32.6268 136.583 32.718C136.305 32.8091 135.999 32.8547 135.667 32.8547ZM144.902 32.882C144.15 32.882 143.507 32.7271 142.974 32.4172C142.441 32.1073 142.033 31.6607 141.75 31.0774C141.468 30.494 141.327 29.7968 141.327 28.9856V28.9719C141.327 28.1653 141.468 27.4748 141.75 26.9006C142.033 26.3264 142.441 25.8866 142.974 25.5813C143.507 25.2714 144.148 25.1164 144.895 25.1164C145.538 25.1164 146.089 25.2281 146.549 25.4514C147.014 25.6701 147.381 25.9755 147.65 26.3674C147.923 26.7548 148.092 27.2082 148.156 27.7278V27.7551H146.549L146.542 27.7346C146.465 27.37 146.287 27.0715 146.009 26.8391C145.736 26.6067 145.367 26.4904 144.902 26.4904C144.514 26.4904 144.182 26.5884 143.904 26.7844C143.63 26.9804 143.421 27.2629 143.275 27.632C143.129 28.0012 143.056 28.4478 143.056 28.9719V28.9856C143.056 29.5142 143.129 29.9677 143.275 30.3459C143.425 30.7196 143.637 31.0067 143.911 31.2072C144.184 31.4032 144.514 31.5012 144.902 31.5012C145.344 31.5012 145.699 31.4009 145.968 31.2004C146.242 30.9999 146.431 30.7037 146.536 30.3117L146.549 30.2844L148.149 30.2776L148.142 30.3391C148.06 30.8449 147.882 31.2893 147.609 31.6721C147.34 32.0549 146.98 32.3534 146.529 32.5676C146.078 32.7772 145.535 32.882 144.902 32.882ZM149.844 32.7317V22.3684H151.546V26.4084H151.663C151.84 26.0028 152.109 25.6861 152.469 25.4582C152.829 25.2304 153.278 25.1164 153.816 25.1164C154.372 25.1164 154.841 25.2258 155.224 25.4445C155.607 25.6587 155.896 25.9732 156.092 26.3879C156.293 26.8026 156.393 27.3062 156.393 27.8987V32.7317H154.691V28.2951C154.691 27.7118 154.568 27.2743 154.322 26.9826C154.08 26.691 153.702 26.5451 153.187 26.5451C152.85 26.5451 152.558 26.6203 152.312 26.7707C152.066 26.9211 151.877 27.133 151.745 27.4065C151.612 27.6799 151.546 28.0035 151.546 28.3772V32.7317H149.844ZM158.423 32.7317V25.26H160.119V32.7317H158.423ZM159.278 24.009C159 24.009 158.761 23.911 158.56 23.7151C158.36 23.5191 158.259 23.2844 158.259 23.011C158.259 22.7284 158.36 22.4914 158.56 22.3C158.761 22.1041 159 22.0061 159.278 22.0061C159.556 22.0061 159.793 22.1041 159.989 22.3C160.189 22.4914 160.29 22.7284 160.29 23.011C160.29 23.2844 160.189 23.5191 159.989 23.7151C159.793 23.911 159.556 24.009 159.278 24.009ZM162.217 32.7317V25.26H163.919V26.4084H164.036C164.213 26.0028 164.482 25.6861 164.842 25.4582C165.202 25.2304 165.651 25.1164 166.189 25.1164C167.023 25.1164 167.661 25.358 168.103 25.841C168.545 26.3241 168.766 27.01 168.766 27.8987V32.7317H167.064V28.2951C167.064 27.7118 166.941 27.2743 166.695 26.9826C166.453 26.691 166.075 26.5451 165.56 26.5451C165.223 26.5451 164.931 26.6203 164.685 26.7707C164.439 26.9211 164.25 27.133 164.118 27.4065C163.986 27.6799 163.919 28.0035 163.919 28.3772V32.7317H162.217ZM173.989 35.3567C173.333 35.3567 172.765 35.2701 172.287 35.0969C171.813 34.9237 171.439 34.6776 171.166 34.3586C170.892 34.0442 170.726 33.6773 170.667 33.258L170.673 33.2375H172.369L172.382 33.258C172.437 33.495 172.603 33.6887 172.881 33.8391C173.164 33.994 173.542 34.0715 174.016 34.0715C174.599 34.0715 175.051 33.9416 175.37 33.6819C175.693 33.4221 175.855 33.0529 175.855 32.5744V31.1389H175.739C175.597 31.4078 175.413 31.6356 175.185 31.8225C174.962 32.0093 174.704 32.1506 174.413 32.2463C174.125 32.3375 173.809 32.383 173.462 32.383C172.833 32.383 172.289 32.2326 171.829 31.9319C171.368 31.6265 171.013 31.205 170.762 30.6672C170.516 30.1294 170.393 29.5074 170.393 28.801V28.7873C170.393 28.0673 170.518 27.4338 170.769 26.8869C171.02 26.3401 171.375 25.9117 171.835 25.6018C172.3 25.2919 172.854 25.1369 173.497 25.1369C173.843 25.1369 174.16 25.1916 174.447 25.301C174.738 25.4104 174.994 25.5653 175.212 25.7658C175.436 25.9664 175.618 26.2079 175.759 26.4904H175.848V25.26H177.55V32.5471C177.55 33.1213 177.404 33.6181 177.113 34.0373C176.826 34.4612 176.416 34.787 175.882 35.0149C175.349 35.2427 174.718 35.3567 173.989 35.3567ZM173.989 31.0295C174.381 31.0295 174.718 30.9361 175 30.7492C175.283 30.5578 175.5 30.2958 175.65 29.9631C175.805 29.6304 175.882 29.2431 175.882 28.801V28.7873C175.882 28.3453 175.805 27.9579 175.65 27.6252C175.5 27.288 175.283 27.0259 175 26.8391C174.718 26.6477 174.381 26.552 173.989 26.552C173.592 26.552 173.255 26.6477 172.977 26.8391C172.704 27.0259 172.494 27.288 172.348 27.6252C172.207 27.9579 172.136 28.3453 172.136 28.7873V28.801C172.136 29.2385 172.207 29.6259 172.348 29.9631C172.494 30.2958 172.704 30.5578 172.977 30.7492C173.255 30.9361 173.592 31.0295 173.989 31.0295ZM71.5864 52.7317V46.5793H70.3628V45.26H71.5864V44.5217C71.5864 44.0204 71.6707 43.6057 71.8394 43.2776C72.0125 42.9494 72.2791 42.7056 72.6392 42.5461C72.9992 42.382 73.4549 42.3 74.0063 42.3C74.1886 42.3 74.3573 42.3069 74.5122 42.3205C74.6672 42.3296 74.8107 42.3456 74.9429 42.3684V43.5578C74.8791 43.5487 74.797 43.5419 74.6968 43.5373C74.5965 43.5282 74.4871 43.5237 74.3687 43.5237C73.9676 43.5237 73.6828 43.6171 73.5142 43.8039C73.3455 43.9862 73.2612 44.2574 73.2612 44.6174V45.26H74.8813V46.5793H73.2886V52.7317H71.5864ZM79.4478 52.882C78.7049 52.882 78.0669 52.7248 77.5337 52.4104C77.005 52.0959 76.5972 51.6493 76.3101 51.0705C76.0229 50.4918 75.8794 49.8059 75.8794 49.0129V49.0061C75.8794 48.2222 76.0207 47.5386 76.3032 46.9553C76.5903 46.372 76.9959 45.9208 77.52 45.6018C78.0441 45.2782 78.6593 45.1164 79.3657 45.1164C80.0767 45.1164 80.6873 45.2737 81.1978 45.5881C81.7127 45.898 82.1092 46.3332 82.3872 46.8938C82.6652 47.4543 82.8042 48.1106 82.8042 48.8625V49.4231H76.7339V48.2815H81.9702L81.1636 49.3479V48.6711C81.1636 48.1744 81.0884 47.7619 80.938 47.4338C80.7876 47.1057 80.578 46.8596 80.3091 46.6955C80.0448 46.5315 79.7371 46.4494 79.3862 46.4494C79.0353 46.4494 78.7231 46.536 78.4497 46.7092C78.1808 46.8778 77.9666 47.1285 77.8071 47.4612C77.6522 47.7893 77.5747 48.1926 77.5747 48.6711V49.3547C77.5747 49.815 77.6522 50.2092 77.8071 50.5373C77.9621 50.8609 78.1808 51.1115 78.4634 51.2893C78.7505 51.4625 79.09 51.549 79.4819 51.549C79.7873 51.549 80.0493 51.5057 80.2681 51.4192C80.4914 51.328 80.6714 51.2209 80.8081 51.0979C80.9448 50.9703 81.0405 50.8495 81.0952 50.7356L81.1157 50.6877H82.729L82.7153 50.7492C82.6561 50.9908 82.5467 51.2369 82.3872 51.4875C82.2323 51.7336 82.0203 51.9638 81.7515 52.1779C81.4871 52.3876 81.1636 52.5585 80.7808 52.6906C80.3979 52.8182 79.9536 52.882 79.4478 52.882ZM87.7056 52.882C86.9627 52.882 86.3247 52.7248 85.7915 52.4104C85.2629 52.0959 84.855 51.6493 84.5679 51.0705C84.2808 50.4918 84.1372 49.8059 84.1372 49.0129V49.0061C84.1372 48.2222 84.2785 47.5386 84.561 46.9553C84.8481 46.372 85.2537 45.9208 85.7778 45.6018C86.3019 45.2782 86.9172 45.1164 87.6235 45.1164C88.3345 45.1164 88.9451 45.2737 89.4556 45.5881C89.9705 45.898 90.367 46.3332 90.645 46.8938C90.923 47.4543 91.062 48.1106 91.062 48.8625V49.4231H84.9917V48.2815H90.228L89.4214 49.3479V48.6711C89.4214 48.1744 89.3462 47.7619 89.1958 47.4338C89.0454 47.1057 88.8358 46.8596 88.5669 46.6955C88.3026 46.5315 87.995 46.4494 87.644 46.4494C87.2931 46.4494 86.981 46.536 86.7075 46.7092C86.4386 46.8778 86.2244 47.1285 86.0649 47.4612C85.91 47.7893 85.8325 48.1926 85.8325 48.6711V49.3547C85.8325 49.815 85.91 50.2092 86.0649 50.5373C86.2199 50.8609 86.4386 51.1115 86.7212 51.2893C87.0083 51.4625 87.3478 51.549 87.7397 51.549C88.0451 51.549 88.3071 51.5057 88.5259 51.4192C88.7492 51.328 88.9292 51.2209 89.0659 51.0979C89.2026 50.9703 89.2983 50.8495 89.353 50.7356L89.3735 50.6877H90.9868L90.9731 50.7492C90.9139 50.9908 90.8045 51.2369 90.645 51.4875C90.4901 51.7336 90.2782 51.9638 90.0093 52.1779C89.745 52.3876 89.4214 52.5585 89.0386 52.6906C88.6558 52.8182 88.2114 52.882 87.7056 52.882ZM95.4575 52.8547C94.8377 52.8547 94.2977 52.6998 93.8374 52.3899C93.3771 52.0754 93.0216 51.6288 92.771 51.05C92.5203 50.4712 92.395 49.7899 92.395 49.0061V48.9924C92.395 48.1994 92.5181 47.5158 92.7642 46.9416C93.0148 46.3628 93.368 45.9185 93.8237 45.6086C94.284 45.2942 94.8286 45.1369 95.4575 45.1369C95.7993 45.1369 96.1183 45.1916 96.4146 45.301C96.7108 45.4058 96.9705 45.5562 97.1938 45.7522C97.4217 45.9481 97.5994 46.1806 97.7271 46.4494H97.8501V42.3684H99.5454V52.7317H97.8501V51.5627H97.7271C97.5903 51.8316 97.4103 52.064 97.187 52.26C96.9683 52.4514 96.7131 52.5995 96.4214 52.7043C96.1297 52.8046 95.8084 52.8547 95.4575 52.8547ZM95.9907 51.4192C96.3781 51.4192 96.7108 51.3235 96.9888 51.132C97.2713 50.9361 97.4878 50.6581 97.6382 50.2981C97.7931 49.9335 97.8706 49.5028 97.8706 49.0061V48.9924C97.8706 48.4911 97.7931 48.0604 97.6382 47.7004C97.4878 47.3404 97.2713 47.0624 96.9888 46.8664C96.7108 46.6705 96.3781 46.5725 95.9907 46.5725C95.6079 46.5725 95.2752 46.6705 94.9927 46.8664C94.7147 47.0578 94.5005 47.3358 94.3501 47.7004C94.1997 48.0604 94.1245 48.4911 94.1245 48.9924V49.0061C94.1245 49.5074 94.1997 49.938 94.3501 50.2981C94.5005 50.6581 94.7147 50.9361 94.9927 51.132C95.2707 51.3235 95.6034 51.4192 95.9907 51.4192ZM105.848 52.8547C105.497 52.8547 105.176 52.8046 104.884 52.7043C104.593 52.5995 104.335 52.4514 104.112 52.26C103.893 52.064 103.715 51.8316 103.579 51.5627H103.462V52.7317H101.76V42.3684H103.462V46.4494H103.579C103.711 46.1806 103.889 45.9481 104.112 45.7522C104.335 45.5562 104.595 45.4058 104.891 45.301C105.187 45.1916 105.506 45.1369 105.848 45.1369C106.477 45.1369 107.019 45.2942 107.475 45.6086C107.935 45.9185 108.291 46.3628 108.542 46.9416C108.792 47.5158 108.917 48.1994 108.917 48.9924V49.0061C108.917 49.7899 108.79 50.4712 108.535 51.05C108.284 51.6288 107.929 52.0754 107.468 52.3899C107.013 52.6998 106.472 52.8547 105.848 52.8547ZM105.315 51.4192C105.702 51.4192 106.035 51.3235 106.313 51.132C106.591 50.9361 106.805 50.6581 106.956 50.2981C107.106 49.938 107.181 49.5074 107.181 49.0061V48.9924C107.181 48.4911 107.106 48.0604 106.956 47.7004C106.805 47.3358 106.591 47.0578 106.313 46.8664C106.035 46.6705 105.702 46.5725 105.315 46.5725C104.932 46.5725 104.599 46.6705 104.317 46.8664C104.034 47.0624 103.816 47.3404 103.661 47.7004C103.51 48.0604 103.435 48.4911 103.435 48.9924V49.0061C103.435 49.5028 103.51 49.9335 103.661 50.2981C103.816 50.6581 104.032 50.9361 104.31 51.132C104.593 51.3235 104.928 51.4192 105.315 51.4192ZM112.657 52.8547C112.187 52.8547 111.766 52.7636 111.392 52.5813C111.023 52.399 110.731 52.1415 110.517 51.8088C110.307 51.4716 110.203 51.0751 110.203 50.6194V50.6057C110.203 50.1636 110.312 49.7831 110.531 49.4641C110.75 49.1405 111.071 48.8876 111.495 48.7053C111.918 48.523 112.433 48.4159 113.04 48.384L115.801 48.2131V49.3342L113.279 49.4983C112.8 49.5256 112.447 49.6259 112.219 49.799C111.991 49.9722 111.877 50.2138 111.877 50.5237V50.5373C111.877 50.8563 111.998 51.1047 112.24 51.2824C112.486 51.4602 112.798 51.549 113.176 51.549C113.518 51.549 113.823 51.4807 114.092 51.344C114.361 51.2072 114.573 51.0227 114.728 50.7903C114.883 50.5533 114.96 50.2867 114.96 49.9904V47.6252C114.96 47.2515 114.842 46.9667 114.605 46.7707C114.368 46.5702 114.017 46.4699 113.552 46.4699C113.165 46.4699 112.848 46.5383 112.602 46.675C112.356 46.8072 112.19 46.9963 112.103 47.2424L112.096 47.2697H110.49L110.497 47.2082C110.551 46.789 110.715 46.4221 110.989 46.1076C111.262 45.7932 111.625 45.5494 112.076 45.3762C112.527 45.203 113.046 45.1164 113.634 45.1164C114.281 45.1164 114.828 45.2167 115.275 45.4172C115.722 45.6132 116.061 45.9003 116.293 46.2785C116.526 46.6522 116.642 47.1011 116.642 47.6252V52.7317H114.96V51.7063H114.844C114.708 51.9432 114.53 52.1483 114.311 52.3215C114.097 52.4947 113.851 52.6268 113.573 52.718C113.295 52.8091 112.989 52.8547 112.657 52.8547ZM121.892 52.882C121.14 52.882 120.498 52.7271 119.964 52.4172C119.431 52.1073 119.023 51.6607 118.741 51.0774C118.458 50.494 118.317 49.7968 118.317 48.9856V48.9719C118.317 48.1653 118.458 47.4748 118.741 46.9006C119.023 46.3264 119.431 45.8866 119.964 45.5813C120.498 45.2714 121.138 45.1164 121.885 45.1164C122.528 45.1164 123.079 45.2281 123.54 45.4514C124.004 45.6701 124.371 45.9755 124.64 46.3674C124.914 46.7548 125.082 47.2082 125.146 47.7278V47.7551H123.54L123.533 47.7346C123.455 47.37 123.278 47.0715 123 46.8391C122.726 46.6067 122.357 46.4904 121.892 46.4904C121.505 46.4904 121.172 46.5884 120.894 46.7844C120.621 46.9804 120.411 47.2629 120.265 47.632C120.119 48.0012 120.046 48.4478 120.046 48.9719V48.9856C120.046 49.5142 120.119 49.9677 120.265 50.3459C120.416 50.7196 120.627 51.0067 120.901 51.2072C121.174 51.4032 121.505 51.5012 121.892 51.5012C122.334 51.5012 122.69 51.4009 122.958 51.2004C123.232 50.9999 123.421 50.7037 123.526 50.3117L123.54 50.2844L125.139 50.2776L125.132 50.3391C125.05 50.8449 124.873 51.2893 124.599 51.6721C124.33 52.0549 123.97 52.3534 123.519 52.5676C123.068 52.7772 122.526 52.882 121.892 52.882ZM126.834 52.7317V42.3684H128.537V52.7317H126.834ZM131.531 52.7317L129.015 49.341L130.28 48.302L133.575 52.7317H131.531ZM128.393 50.257L128.332 48.3293H128.653L131.408 45.26H133.376L130.129 48.6711L129.35 49.2795L128.393 50.257Z" fill="black"/>
<path d="M270.011 37.9671C270.011 31.3397 275.384 25.9671 282.011 25.9671H316.011C322.639 25.9671 328.011 31.3397 328.011 37.9671V37.9671C328.011 44.5945 322.639 49.9671 316.011 49.9671H282.011C275.384 49.9671 270.011 44.5945 270.011 37.9671V37.9671Z" fill="#8A7DFD"/>
<g clip-path="url(#clip0_3639_21886)">
<path d="M281.338 34.4391C281.354 34.407 281.379 34.3799 281.409 34.3609C281.44 34.342 281.475 34.3319 281.511 34.3319C281.547 34.3319 281.582 34.342 281.613 34.3609C281.643 34.3799 281.668 34.407 281.684 34.4391L282.523 36.14C282.579 36.252 282.66 36.3488 282.761 36.4223C282.862 36.4957 282.98 36.5436 283.103 36.5617L284.981 36.8365C285.017 36.8417 285.05 36.8567 285.078 36.8799C285.105 36.903 285.126 36.9334 285.137 36.9676C285.148 37.0018 285.149 37.0384 285.141 37.0734C285.132 37.1083 285.114 37.1401 285.088 37.1652L283.73 38.4876C283.64 38.5749 283.573 38.6827 283.535 38.8016C283.496 38.9205 283.487 39.0471 283.508 39.1703L283.829 41.0388C283.835 41.0744 283.831 41.111 283.817 41.1445C283.804 41.178 283.781 41.207 283.752 41.2282C283.723 41.2494 283.688 41.262 283.652 41.2645C283.616 41.267 283.58 41.2594 283.548 41.2424L281.87 40.3598C281.759 40.3017 281.636 40.2713 281.511 40.2713C281.386 40.2713 281.263 40.3017 281.152 40.3598L279.474 41.2424C279.442 41.2593 279.406 41.2668 279.37 41.2643C279.334 41.2617 279.3 41.2491 279.27 41.2279C279.241 41.2067 279.219 41.1777 279.205 41.1443C279.192 41.1109 279.188 41.0743 279.194 41.0388L279.514 39.1707C279.535 39.0474 279.526 38.9207 279.488 38.8017C279.449 38.6827 279.382 38.5749 279.292 38.4876L277.934 37.1655C277.908 37.1405 277.89 37.1086 277.881 37.0736C277.872 37.0386 277.874 37.0018 277.885 36.9675C277.896 36.9332 277.916 36.9026 277.944 36.8794C277.972 36.8562 278.005 36.8412 278.041 36.8362L279.919 36.5617C280.042 36.5437 280.16 36.4959 280.261 36.4225C280.362 36.349 280.444 36.2521 280.499 36.14L281.338 34.4391Z" fill="white" stroke="white" stroke-width="0.727037" stroke-linecap="round" stroke-linejoin="round"/>
</g>
<path d="M293.339 41.9671V36.1614H293.251L291.499 37.3968V36.2151L293.339 34.9212H294.594V41.9671H293.339ZM299.096 42.1429C298.618 42.1429 298.196 42.0534 297.832 41.8743C297.467 41.6953 297.177 41.4528 296.962 41.1468C296.748 40.8375 296.624 40.4909 296.591 40.1068L296.586 40.0433H297.744L297.753 40.0775C297.786 40.2695 297.862 40.4437 297.983 40.5999C298.103 40.7562 298.26 40.8815 298.452 40.9759C298.644 41.067 298.86 41.1126 299.101 41.1126C299.375 41.1126 299.615 41.0524 299.824 40.9319C300.035 40.8115 300.2 40.6455 300.317 40.4339C300.434 40.2191 300.493 39.9749 300.493 39.7015V39.6917C300.493 39.4183 300.432 39.1774 300.312 38.9691C300.195 38.7575 300.032 38.5931 299.824 38.4759C299.619 38.3554 299.381 38.2952 299.111 38.2952C298.912 38.2952 298.728 38.3245 298.559 38.3831C298.393 38.4417 298.245 38.5296 298.115 38.6468C298.05 38.7021 297.989 38.764 297.934 38.8323C297.879 38.8974 297.83 38.9691 297.788 39.0472H296.708L297.05 34.9212H301.279V35.9515H298.032L297.832 38.0999H297.919C298.017 37.9404 298.141 37.8053 298.291 37.6946C298.44 37.5807 298.611 37.4944 298.803 37.4359C298.995 37.374 299.2 37.3431 299.418 37.3431C299.861 37.3431 300.252 37.444 300.59 37.6458C300.932 37.8444 301.201 38.1194 301.396 38.471C301.591 38.8193 301.689 39.2181 301.689 39.6673V39.6771C301.689 40.1653 301.578 40.595 301.357 40.9661C301.139 41.334 300.834 41.622 300.444 41.8304C300.053 42.0387 299.604 42.1429 299.096 42.1429ZM305.385 41.9671L307.978 37.9681L307.685 38.9739V38.4026L305.405 34.9212H306.894L308.53 37.5726H309.111L308.291 38.0462L310.219 34.9212H311.625L309.272 38.4368V39.0081L308.974 38.0023L311.586 41.9671H310.136L308.471 39.3743H307.895L308.725 38.9105L306.757 41.9671H305.385ZM313.564 39.638V38.6224H315.439C315.891 38.6224 316.243 38.5068 316.494 38.2757C316.744 38.0413 316.87 37.7125 316.87 37.2894V37.2796C316.87 36.8532 316.744 36.5244 316.494 36.2933C316.243 36.0622 315.891 35.9466 315.439 35.9466H313.564V34.9212H315.747C316.225 34.9212 316.643 35.0189 317.001 35.2142C317.36 35.4095 317.639 35.6845 317.841 36.0394C318.043 36.3909 318.144 36.8027 318.144 37.2747V37.2845C318.144 37.7532 318.043 38.165 317.841 38.5198C317.639 38.8714 317.36 39.1465 317.001 39.345C316.643 39.5403 316.225 39.638 315.747 39.638H313.564ZM312.934 41.9671V34.9212H314.194V41.9671H312.934Z" fill="white"/>
<path d="M70.7427 75.4706V67.0156H73.9712C74.5142 67.0156 74.9868 67.121 75.3892 67.332C75.7954 67.539 76.1099 67.83 76.3325 68.205C76.5552 68.58 76.6665 69.0214 76.6665 69.5292V69.541C76.6665 70.1269 76.5161 70.6347 76.2153 71.0644C75.9146 71.4941 75.4985 71.7929 74.9673 71.9609L76.9243 75.4706H75.688L73.8774 72.1249C73.8696 72.1249 73.8599 72.1249 73.8481 72.1249C73.8364 72.1249 73.8267 72.1249 73.8188 72.1249H71.7974V75.4706H70.7427ZM71.7974 71.1874H73.8774C74.4204 71.1874 74.8384 71.0488 75.1313 70.7714C75.4282 70.4902 75.5767 70.0917 75.5767 69.5761V69.5644C75.5767 69.0605 75.4224 68.666 75.1138 68.3808C74.8052 68.0956 74.3774 67.9531 73.8306 67.9531H71.7974V71.1874ZM80.856 75.582C80.2544 75.582 79.7368 75.4492 79.3032 75.1835C78.8735 74.9179 78.5415 74.5429 78.3071 74.0585C78.0767 73.5703 77.9614 72.996 77.9614 72.3359V72.33C77.9614 71.6777 78.0767 71.1054 78.3071 70.6132C78.5415 70.121 78.8716 69.7363 79.2974 69.4589C79.7231 69.1816 80.2212 69.0429 80.7915 69.0429C81.3657 69.0429 81.8579 69.1757 82.2681 69.4413C82.6821 69.707 82.9985 70.0781 83.2173 70.5546C83.4399 71.0273 83.5513 71.5781 83.5513 72.207V72.6054H78.4888V71.791H83.0298L82.5259 72.5351V72.1308C82.5259 71.6347 82.4517 71.2265 82.3032 70.9062C82.1548 70.5859 81.9497 70.3476 81.688 70.1913C81.4263 70.0312 81.1255 69.9511 80.7856 69.9511C80.4458 69.9511 80.1411 70.0351 79.8716 70.2031C79.606 70.3671 79.395 70.6113 79.2388 70.9355C79.0825 71.2597 79.0044 71.6581 79.0044 72.1308V72.5351C79.0044 72.9843 79.0806 73.3691 79.2329 73.6894C79.3853 74.0058 79.6021 74.2499 79.8833 74.4218C80.1646 74.5898 80.4966 74.6738 80.8794 74.6738C81.1646 74.6738 81.4126 74.6347 81.6235 74.5566C81.8345 74.4785 82.0083 74.3788 82.145 74.2578C82.2817 74.1367 82.3774 74.0136 82.4321 73.8886L82.4556 73.8359H83.4751L83.4634 73.8828C83.4087 74.0976 83.311 74.3066 83.1704 74.5097C83.0337 74.7089 82.856 74.8906 82.6372 75.0546C82.4185 75.2148 82.1587 75.3437 81.8579 75.4413C81.561 75.5351 81.2271 75.582 80.856 75.582ZM87.7173 75.582C87.1274 75.582 86.6157 75.4472 86.1821 75.1777C85.7485 74.9081 85.4126 74.5273 85.1743 74.0351C84.936 73.5429 84.8169 72.9628 84.8169 72.2949V72.2831C84.8169 71.6269 84.9341 71.0566 85.1685 70.5722C85.4067 70.0878 85.7427 69.7128 86.1763 69.4472C86.6099 69.1777 87.1216 69.0429 87.7114 69.0429C88.2231 69.0429 88.6646 69.1328 89.0356 69.3124C89.4067 69.4921 89.7036 69.7343 89.9263 70.039C90.1489 70.3398 90.2915 70.6777 90.354 71.0527L90.3599 71.0878H89.3462L89.3403 71.0703C89.2622 70.7578 89.0845 70.4921 88.8071 70.2734C88.5298 70.0546 88.1646 69.9453 87.7114 69.9453C87.3325 69.9453 87.0044 70.041 86.7271 70.2324C86.4497 70.4238 86.2349 70.6953 86.0825 71.0468C85.9341 71.3945 85.8599 71.8066 85.8599 72.2831V72.2949C85.8599 72.7792 85.936 73.2011 86.0884 73.5605C86.2407 73.916 86.4556 74.1913 86.7329 74.3867C87.0103 74.582 87.3364 74.6796 87.7114 74.6796C88.1372 74.6796 88.4849 74.5878 88.7544 74.4042C89.0239 74.2206 89.2173 73.9531 89.3345 73.6015L89.3462 73.5663L90.354 73.5605L90.3423 73.6249C90.2563 74.0038 90.104 74.3417 89.8853 74.6386C89.6665 74.9316 89.3774 75.162 89.0181 75.33C88.6587 75.498 88.2251 75.582 87.7173 75.582ZM94.4263 75.582C93.8247 75.582 93.3071 75.4492 92.8735 75.1835C92.4438 74.9179 92.1118 74.5429 91.8774 74.0585C91.647 73.5703 91.5317 72.996 91.5317 72.3359V72.33C91.5317 71.6777 91.647 71.1054 91.8774 70.6132C92.1118 70.121 92.4419 69.7363 92.8677 69.4589C93.2935 69.1816 93.7915 69.0429 94.3618 69.0429C94.936 69.0429 95.4282 69.1757 95.8384 69.4413C96.2524 69.707 96.5688 70.0781 96.7876 70.5546C97.0103 71.0273 97.1216 71.5781 97.1216 72.207V72.6054H92.0591V71.791H96.6001L96.0962 72.5351V72.1308C96.0962 71.6347 96.022 71.2265 95.8735 70.9062C95.7251 70.5859 95.52 70.3476 95.2583 70.1913C94.9966 70.0312 94.6958 69.9511 94.356 69.9511C94.0161 69.9511 93.7114 70.0351 93.4419 70.2031C93.1763 70.3671 92.9653 70.6113 92.8091 70.9355C92.6528 71.2597 92.5747 71.6581 92.5747 72.1308V72.5351C92.5747 72.9843 92.6509 73.3691 92.8032 73.6894C92.9556 74.0058 93.1724 74.2499 93.4536 74.4218C93.7349 74.5898 94.0669 74.6738 94.4497 74.6738C94.7349 74.6738 94.9829 74.6347 95.1938 74.5566C95.4048 74.4785 95.5786 74.3788 95.7153 74.2578C95.8521 74.1367 95.9478 74.0136 96.0024 73.8886L96.0259 73.8359H97.0454L97.0337 73.8828C96.979 74.0976 96.8813 74.3066 96.7407 74.5097C96.604 74.7089 96.4263 74.8906 96.2075 75.0546C95.9888 75.2148 95.729 75.3437 95.4282 75.4413C95.1313 75.5351 94.7974 75.582 94.4263 75.582ZM98.7271 75.4706V69.1542H99.7466V75.4706H98.7271ZM99.2427 67.9355C99.0513 67.9355 98.8853 67.8671 98.7446 67.7304C98.6079 67.5898 98.5396 67.4238 98.5396 67.2324C98.5396 67.037 98.6079 66.871 98.7446 66.7343C98.8853 66.5976 99.0513 66.5292 99.2427 66.5292C99.438 66.5292 99.604 66.5976 99.7407 66.7343C99.8774 66.871 99.9458 67.037 99.9458 67.2324C99.9458 67.4238 99.8774 67.5898 99.7407 67.7304C99.604 67.8671 99.438 67.9355 99.2427 67.9355ZM103.456 75.4706L101.118 69.1542H102.196L103.924 74.3574H104.018L105.747 69.1542H106.825L104.487 75.4706H103.456ZM110.516 75.582C109.915 75.582 109.397 75.4492 108.963 75.1835C108.534 74.9179 108.202 74.5429 107.967 74.0585C107.737 73.5703 107.622 72.996 107.622 72.3359V72.33C107.622 71.6777 107.737 71.1054 107.967 70.6132C108.202 70.121 108.532 69.7363 108.958 69.4589C109.383 69.1816 109.881 69.0429 110.452 69.0429C111.026 69.0429 111.518 69.1757 111.928 69.4413C112.342 69.707 112.659 70.0781 112.877 70.5546C113.1 71.0273 113.211 71.5781 113.211 72.207V72.6054H108.149V71.791H112.69L112.186 72.5351V72.1308C112.186 71.6347 112.112 71.2265 111.963 70.9062C111.815 70.5859 111.61 70.3476 111.348 70.1913C111.086 70.0312 110.786 69.9511 110.446 69.9511C110.106 69.9511 109.801 70.0351 109.532 70.2031C109.266 70.3671 109.055 70.6113 108.899 70.9355C108.743 71.2597 108.665 71.6581 108.665 72.1308V72.5351C108.665 72.9843 108.741 73.3691 108.893 73.6894C109.045 74.0058 109.262 74.2499 109.543 74.4218C109.825 74.5898 110.157 74.6738 110.54 74.6738C110.825 74.6738 111.073 74.6347 111.284 74.5566C111.495 74.4785 111.668 74.3788 111.805 74.2578C111.942 74.1367 112.038 74.0136 112.092 73.8886L112.116 73.8359H113.135L113.124 73.8828C113.069 74.0976 112.971 74.3066 112.831 74.5097C112.694 74.7089 112.516 74.8906 112.297 75.0546C112.079 75.2148 111.819 75.3437 111.518 75.4413C111.221 75.5351 110.887 75.582 110.516 75.582ZM118.168 77.58V69.1542H119.188V70.162H119.282C119.411 69.9277 119.573 69.7285 119.768 69.5644C119.963 69.3964 120.186 69.2675 120.436 69.1777C120.686 69.0878 120.958 69.0429 121.25 69.0429C121.786 69.0429 122.25 69.1796 122.645 69.4531C123.043 69.7226 123.352 70.1015 123.571 70.5898C123.79 71.0781 123.899 71.6503 123.899 72.3066V72.3183C123.899 72.9785 123.79 73.5527 123.571 74.041C123.352 74.5292 123.043 74.9081 122.645 75.1777C122.25 75.4472 121.786 75.582 121.25 75.582C120.961 75.582 120.688 75.537 120.43 75.4472C120.176 75.3535 119.95 75.2245 119.75 75.0605C119.555 74.8964 119.399 74.7011 119.282 74.4745H119.188V77.58H118.168ZM121.016 74.6796C121.403 74.6796 121.733 74.5859 122.006 74.3984C122.28 74.207 122.489 73.9355 122.633 73.5839C122.782 73.2285 122.856 72.8066 122.856 72.3183V72.3066C122.856 71.8144 122.782 71.3925 122.633 71.041C122.489 70.6894 122.28 70.4199 122.006 70.2324C121.733 70.041 121.403 69.9453 121.016 69.9453C120.633 69.9453 120.303 70.041 120.026 70.2324C119.749 70.4238 119.536 70.6953 119.387 71.0468C119.239 71.3984 119.165 71.8183 119.165 72.3066V72.3183C119.165 72.8027 119.239 73.2226 119.387 73.5781C119.536 73.9296 119.749 74.2011 120.026 74.3925C120.303 74.5839 120.633 74.6796 121.016 74.6796ZM128.071 75.582C127.469 75.582 126.952 75.4492 126.518 75.1835C126.088 74.9179 125.756 74.5429 125.522 74.0585C125.292 73.5703 125.176 72.996 125.176 72.3359V72.33C125.176 71.6777 125.292 71.1054 125.522 70.6132C125.756 70.121 126.086 69.7363 126.512 69.4589C126.938 69.1816 127.436 69.0429 128.006 69.0429C128.581 69.0429 129.073 69.1757 129.483 69.4413C129.897 69.707 130.213 70.0781 130.432 70.5546C130.655 71.0273 130.766 71.5781 130.766 72.207V72.6054H125.704V71.791H130.245L129.741 72.5351V72.1308C129.741 71.6347 129.667 71.2265 129.518 70.9062C129.37 70.5859 129.165 70.3476 128.903 70.1913C128.641 70.0312 128.34 69.9511 128 69.9511C127.661 69.9511 127.356 70.0351 127.086 70.2031C126.821 70.3671 126.61 70.6113 126.454 70.9355C126.297 71.2597 126.219 71.6581 126.219 72.1308V72.5351C126.219 72.9843 126.295 73.3691 126.448 73.6894C126.6 74.0058 126.817 74.2499 127.098 74.4218C127.379 74.5898 127.711 74.6738 128.094 74.6738C128.379 74.6738 128.627 74.6347 128.838 74.5566C129.049 74.4785 129.223 74.3788 129.36 74.2578C129.497 74.1367 129.592 74.0136 129.647 73.8886L129.67 73.8359H130.69L130.678 73.8828C130.624 74.0976 130.526 74.3066 130.385 74.5097C130.249 74.7089 130.071 74.8906 129.852 75.0546C129.633 75.2148 129.374 75.3437 129.073 75.4413C128.776 75.5351 128.442 75.582 128.071 75.582ZM132.348 75.4706V69.1542H133.368V70.0917H133.461C133.583 69.7597 133.788 69.5019 134.077 69.3183C134.366 69.1347 134.723 69.0429 135.149 69.0429C135.247 69.0429 135.342 69.0488 135.436 69.0605C135.534 69.0683 135.608 69.0761 135.659 69.0839V70.0742C135.553 70.0546 135.45 70.041 135.348 70.0331C135.25 70.0214 135.145 70.0156 135.032 70.0156C134.708 70.0156 134.42 70.08 134.17 70.2089C133.92 70.3378 133.723 70.5175 133.579 70.748C133.438 70.9785 133.368 71.248 133.368 71.5566V75.4706H132.348ZM138.969 75.582C138.5 75.582 138.086 75.5117 137.727 75.371C137.368 75.2265 137.079 75.0253 136.86 74.7675C136.645 74.5097 136.518 74.207 136.479 73.8593H137.522C137.608 74.121 137.776 74.332 138.026 74.4921C138.276 74.6523 138.602 74.7324 139.004 74.7324C139.29 74.7324 139.54 74.6913 139.754 74.6093C139.973 74.5234 140.145 74.4081 140.27 74.2636C140.395 74.1152 140.458 73.9453 140.458 73.7538V73.7421C140.458 73.5273 140.372 73.3456 140.2 73.1972C140.028 73.0449 139.747 72.9218 139.356 72.8281L138.377 72.5937C137.983 72.4999 137.659 72.3788 137.405 72.2304C137.151 72.0781 136.963 71.8925 136.842 71.6738C136.721 71.4511 136.661 71.1894 136.661 70.8886V70.8828C136.661 70.5312 136.762 70.2167 136.965 69.9394C137.172 69.662 137.454 69.4433 137.809 69.2831C138.165 69.123 138.565 69.0429 139.01 69.0429C139.452 69.0429 139.842 69.1132 140.182 69.2538C140.526 69.3906 140.801 69.5859 141.008 69.8398C141.219 70.0937 141.348 70.3925 141.395 70.7363H140.393C140.327 70.4863 140.174 70.2831 139.936 70.1269C139.698 69.9706 139.387 69.8925 139.004 69.8925C138.754 69.8925 138.532 69.9335 138.336 70.0156C138.141 70.0937 137.987 70.2031 137.874 70.3437C137.76 70.4843 137.704 70.6484 137.704 70.8359V70.8476C137.704 70.9882 137.741 71.1132 137.815 71.2226C137.889 71.332 138.004 71.4277 138.161 71.5097C138.317 71.5917 138.518 71.664 138.764 71.7265L139.737 71.9609C140.331 72.1054 140.772 72.3124 141.061 72.582C141.354 72.8515 141.5 73.2128 141.5 73.666V73.6777C141.5 74.0527 141.389 74.3847 141.167 74.6738C140.944 74.9589 140.641 75.1816 140.258 75.3417C139.879 75.5019 139.45 75.582 138.969 75.582ZM145.678 75.582C145.081 75.582 144.563 75.4511 144.125 75.1894C143.692 74.9238 143.356 74.5468 143.118 74.0585C142.883 73.5703 142.766 72.9902 142.766 72.3183V72.3066C142.766 71.6308 142.883 71.0488 143.118 70.5605C143.356 70.0722 143.692 69.6972 144.125 69.4355C144.563 69.1738 145.081 69.0429 145.678 69.0429C146.28 69.0429 146.797 69.1738 147.231 69.4355C147.665 69.6972 147.999 70.0722 148.233 70.5605C148.471 71.0488 148.59 71.6308 148.59 72.3066V72.3183C148.59 72.9902 148.471 73.5703 148.233 74.0585C147.999 74.5468 147.665 74.9238 147.231 75.1894C146.797 75.4511 146.28 75.582 145.678 75.582ZM145.678 74.6796C146.077 74.6796 146.415 74.5859 146.692 74.3984C146.969 74.2109 147.18 73.9413 147.325 73.5898C147.473 73.2382 147.547 72.8144 147.547 72.3183V72.3066C147.547 71.8066 147.473 71.3808 147.325 71.0292C147.18 70.6777 146.969 70.4101 146.692 70.2265C146.415 70.039 146.077 69.9453 145.678 69.9453C145.28 69.9453 144.942 70.039 144.665 70.2265C144.387 70.4101 144.174 70.6777 144.026 71.0292C143.881 71.3808 143.809 71.8066 143.809 72.3066V72.3183C143.809 72.8144 143.881 73.2382 144.026 73.5898C144.174 73.9413 144.387 74.2109 144.665 74.3984C144.942 74.5859 145.28 74.6796 145.678 74.6796ZM150.172 75.4706V69.1542H151.192V70.1035H151.286C151.446 69.7675 151.676 69.5078 151.977 69.3242C152.278 69.1367 152.661 69.0429 153.125 69.0429C153.836 69.0429 154.381 69.246 154.76 69.6523C155.143 70.0546 155.334 70.6308 155.334 71.3808V75.4706H154.315V71.6269C154.315 71.0566 154.194 70.6347 153.952 70.3613C153.713 70.0839 153.342 69.9453 152.838 69.9453C152.502 69.9453 152.211 70.0175 151.965 70.162C151.719 70.3066 151.528 70.5117 151.391 70.7773C151.258 71.0429 151.192 71.3613 151.192 71.7324V75.4706H150.172ZM158.915 75.582C158.516 75.582 158.157 75.5058 157.836 75.3535C157.52 75.2011 157.268 74.9843 157.081 74.7031C156.897 74.4218 156.805 74.0898 156.805 73.707V73.6953C156.805 73.3203 156.895 72.9999 157.075 72.7343C157.254 72.4648 157.516 72.2538 157.86 72.1015C158.204 71.9492 158.62 71.8593 159.108 71.832L161.428 71.6913V72.5058L159.231 72.6464C158.75 72.6738 158.399 72.7734 158.176 72.9453C157.958 73.1171 157.848 73.3593 157.848 73.6718V73.6835C157.848 74.0038 157.969 74.2538 158.211 74.4335C158.454 74.6093 158.758 74.6972 159.125 74.6972C159.473 74.6972 159.782 74.6288 160.051 74.4921C160.321 74.3515 160.532 74.162 160.684 73.9238C160.84 73.6855 160.918 73.416 160.918 73.1152V71.1464C160.918 70.7558 160.799 70.4589 160.561 70.2558C160.327 70.0488 159.973 69.9453 159.5 69.9453C159.122 69.9453 158.811 70.0136 158.569 70.1503C158.327 70.2831 158.165 70.4726 158.083 70.7187L158.077 70.7363H157.057L157.063 70.7011C157.118 70.3691 157.254 70.08 157.473 69.8339C157.696 69.5839 157.983 69.3906 158.334 69.2538C158.686 69.1132 159.086 69.0429 159.536 69.0429C160.051 69.0429 160.487 69.1269 160.842 69.2949C161.202 69.4628 161.473 69.705 161.657 70.0214C161.844 70.3339 161.938 70.7089 161.938 71.1464V75.4706H160.918V74.539H160.825C160.692 74.7617 160.53 74.9511 160.338 75.1074C160.151 75.2636 159.938 75.3828 159.7 75.4648C159.461 75.5429 159.2 75.582 158.915 75.582ZM163.86 75.4706V66.6464H164.879V75.4706H163.86ZM166.86 75.4706V69.1542H167.879V75.4706H166.86ZM167.375 67.9355C167.184 67.9355 167.018 67.8671 166.877 67.7304C166.741 67.5898 166.672 67.4238 166.672 67.2324C166.672 67.037 166.741 66.871 166.877 66.7343C167.018 66.5976 167.184 66.5292 167.375 66.5292C167.571 66.5292 167.737 66.5976 167.874 66.7343C168.01 66.871 168.079 67.037 168.079 67.2324C168.079 67.4238 168.01 67.5898 167.874 67.7304C167.737 67.8671 167.571 67.9355 167.375 67.9355ZM169.655 75.4706V74.7324L173.299 70.0917V69.998H169.661V69.1542H174.5V69.9101L170.874 74.5331V74.6269H174.518V75.4706H169.655ZM178.672 75.582C178.071 75.582 177.553 75.4492 177.12 75.1835C176.69 74.9179 176.358 74.5429 176.124 74.0585C175.893 73.5703 175.778 72.996 175.778 72.3359V72.33C175.778 71.6777 175.893 71.1054 176.124 70.6132C176.358 70.121 176.688 69.7363 177.114 69.4589C177.54 69.1816 178.038 69.0429 178.608 69.0429C179.182 69.0429 179.674 69.1757 180.084 69.4413C180.499 69.707 180.815 70.0781 181.034 70.5546C181.256 71.0273 181.368 71.5781 181.368 72.207V72.6054H176.305V71.791H180.846L180.342 72.5351V72.1308C180.342 71.6347 180.268 71.2265 180.12 70.9062C179.971 70.5859 179.766 70.3476 179.504 70.1913C179.243 70.0312 178.942 69.9511 178.602 69.9511C178.262 69.9511 177.958 70.0351 177.688 70.2031C177.422 70.3671 177.211 70.6113 177.055 70.9355C176.899 71.2597 176.821 71.6581 176.821 72.1308V72.5351C176.821 72.9843 176.897 73.3691 177.049 73.6894C177.202 74.0058 177.418 74.2499 177.7 74.4218C177.981 74.5898 178.313 74.6738 178.696 74.6738C178.981 74.6738 179.229 74.6347 179.44 74.5566C179.651 74.4785 179.825 74.3788 179.961 74.2578C180.098 74.1367 180.194 74.0136 180.249 73.8886L180.272 73.8359H181.292L181.28 73.8828C181.225 74.0976 181.127 74.3066 180.987 74.5097C180.85 74.7089 180.672 74.8906 180.454 75.0546C180.235 75.2148 179.975 75.3437 179.674 75.4413C179.377 75.5351 179.043 75.582 178.672 75.582ZM185.282 75.582C184.75 75.582 184.286 75.4472 183.887 75.1777C183.489 74.9081 183.18 74.5292 182.961 74.041C182.743 73.5488 182.633 72.9745 182.633 72.3183V72.3066C182.633 71.6464 182.743 71.0722 182.961 70.5839C183.18 70.0956 183.487 69.7167 183.881 69.4472C184.28 69.1777 184.747 69.0429 185.282 69.0429C185.571 69.0429 185.842 69.0898 186.096 69.1835C186.354 69.2734 186.583 69.4003 186.782 69.5644C186.981 69.7285 187.137 69.9238 187.25 70.1503H187.344V66.6464H188.364V75.4706H187.344V74.4628H187.25C187.122 74.6972 186.959 74.8984 186.764 75.0663C186.569 75.2304 186.346 75.3574 186.096 75.4472C185.846 75.537 185.575 75.582 185.282 75.582ZM185.516 74.6796C185.899 74.6796 186.229 74.5839 186.506 74.3925C186.784 74.2011 186.997 73.9296 187.145 73.5781C187.293 73.2226 187.368 72.8027 187.368 72.3183V72.3066C187.368 71.8183 187.293 71.3984 187.145 71.0468C186.997 70.6953 186.784 70.4238 186.506 70.2324C186.229 70.041 185.899 69.9453 185.516 69.9453C185.133 69.9453 184.803 70.041 184.526 70.2324C184.252 70.4199 184.042 70.6894 183.893 71.041C183.749 71.3925 183.676 71.8144 183.676 72.3066V72.3183C183.676 72.8066 183.749 73.2285 183.893 73.5839C184.042 73.9355 184.252 74.207 184.526 74.3984C184.803 74.5859 185.133 74.6796 185.516 74.6796ZM193.151 75.4706L196.268 67.0156H197.077V68.3808H196.743L194.258 75.4706H193.151ZM194.563 73.0507L194.891 72.1542H198.711L199.04 73.0507H194.563ZM199.321 75.4706L196.836 68.3808V67.0156H197.311L200.428 75.4706H199.321ZM201.911 75.4706V67.0156H202.965V75.4706H201.911ZM208.391 75.4706V69.1542H209.411V75.4706H208.391ZM208.907 67.9355C208.715 67.9355 208.549 67.8671 208.409 67.7304C208.272 67.5898 208.204 67.4238 208.204 67.2324C208.204 67.037 208.272 66.871 208.409 66.7343C208.549 66.5976 208.715 66.5292 208.907 66.5292C209.102 66.5292 209.268 66.5976 209.405 66.7343C209.542 66.871 209.61 67.037 209.61 67.2324C209.61 67.4238 209.542 67.5898 209.405 67.7304C209.268 67.8671 209.102 67.9355 208.907 67.9355ZM211.333 75.4706V69.1542H212.352V70.1035H212.446C212.606 69.7675 212.836 69.5078 213.137 69.3242C213.438 69.1367 213.821 69.0429 214.286 69.0429C214.997 69.0429 215.542 69.246 215.92 69.6523C216.303 70.0546 216.495 70.6308 216.495 71.3808V75.4706H215.475V71.6269C215.475 71.0566 215.354 70.6347 215.112 70.3613C214.874 70.0839 214.502 69.9453 213.999 69.9453C213.663 69.9453 213.372 70.0175 213.125 70.162C212.879 70.3066 212.688 70.5117 212.551 70.7773C212.418 71.0429 212.352 71.3613 212.352 71.7324V75.4706H211.333ZM220.508 75.582C220.04 75.582 219.625 75.5117 219.266 75.371C218.907 75.2265 218.618 75.0253 218.399 74.7675C218.184 74.5097 218.057 74.207 218.018 73.8593H219.061C219.147 74.121 219.315 74.332 219.565 74.4921C219.815 74.6523 220.141 74.7324 220.543 74.7324C220.829 74.7324 221.079 74.6913 221.293 74.6093C221.512 74.5234 221.684 74.4081 221.809 74.2636C221.934 74.1152 221.997 73.9453 221.997 73.7538V73.7421C221.997 73.5273 221.911 73.3456 221.739 73.1972C221.567 73.0449 221.286 72.9218 220.895 72.8281L219.917 72.5937C219.522 72.4999 219.198 72.3788 218.944 72.2304C218.69 72.0781 218.502 71.8925 218.381 71.6738C218.26 71.4511 218.2 71.1894 218.2 70.8886V70.8828C218.2 70.5312 218.301 70.2167 218.504 69.9394C218.711 69.662 218.993 69.4433 219.348 69.2831C219.704 69.123 220.104 69.0429 220.549 69.0429C220.991 69.0429 221.381 69.1132 221.721 69.2538C222.065 69.3906 222.34 69.5859 222.547 69.8398C222.758 70.0937 222.887 70.3925 222.934 70.7363H221.932C221.866 70.4863 221.713 70.2831 221.475 70.1269C221.237 69.9706 220.926 69.8925 220.543 69.8925C220.293 69.8925 220.071 69.9335 219.875 70.0156C219.68 70.0937 219.526 70.2031 219.413 70.3437C219.299 70.4843 219.243 70.6484 219.243 70.8359V70.8476C219.243 70.9882 219.28 71.1132 219.354 71.2226C219.428 71.332 219.543 71.4277 219.7 71.5097C219.856 71.5917 220.057 71.664 220.303 71.7265L221.276 71.9609C221.87 72.1054 222.311 72.3124 222.6 72.582C222.893 72.8515 223.04 73.2128 223.04 73.666V73.6777C223.04 74.0527 222.928 74.3847 222.706 74.6738C222.483 74.9589 222.18 75.1816 221.797 75.3417C221.418 75.5019 220.989 75.582 220.508 75.582ZM224.645 75.4706V69.1542H225.665V75.4706H224.645ZM225.161 67.9355C224.969 67.9355 224.803 67.8671 224.663 67.7304C224.526 67.5898 224.458 67.4238 224.458 67.2324C224.458 67.037 224.526 66.871 224.663 66.7343C224.803 66.5976 224.969 66.5292 225.161 66.5292C225.356 66.5292 225.522 66.5976 225.659 66.7343C225.795 66.871 225.864 67.037 225.864 67.2324C225.864 67.4238 225.795 67.5898 225.659 67.7304C225.522 67.8671 225.356 67.9355 225.161 67.9355ZM230.188 77.6972C229.68 77.6972 229.237 77.6249 228.858 77.4804C228.479 77.3398 228.176 77.1386 227.95 76.8769C227.727 76.6191 227.588 76.3183 227.534 75.9745L227.545 75.9687H228.6L228.606 75.9745C228.661 76.2128 228.825 76.4081 229.098 76.5605C229.372 76.7167 229.735 76.7949 230.188 76.7949C230.754 76.7949 231.196 76.666 231.512 76.4081C231.833 76.1542 231.993 75.7949 231.993 75.33V74.0527H231.899C231.766 74.2831 231.6 74.4804 231.401 74.6445C231.202 74.8085 230.977 74.9335 230.727 75.0195C230.477 75.1015 230.208 75.1425 229.918 75.1425C229.375 75.1425 228.905 75.0136 228.506 74.7558C228.112 74.4941 227.807 74.1347 227.592 73.6777C227.377 73.2206 227.27 72.6972 227.27 72.1074V72.0956C227.27 71.5058 227.377 70.9824 227.592 70.5253C227.811 70.0644 228.12 69.7031 228.518 69.4413C228.917 69.1757 229.391 69.0429 229.942 69.0429C230.239 69.0429 230.512 69.0898 230.762 69.1835C231.012 69.2773 231.233 69.4101 231.424 69.582C231.62 69.7538 231.782 69.9589 231.911 70.1972H231.981V69.1542H233V75.3828C233 75.8515 232.885 76.2597 232.655 76.6074C232.428 76.955 232.104 77.2226 231.682 77.4101C231.26 77.6015 230.762 77.6972 230.188 77.6972ZM230.141 74.2402C230.532 74.2402 230.866 74.1503 231.143 73.9706C231.424 73.787 231.639 73.5351 231.788 73.2148C231.94 72.8945 232.016 72.5253 232.016 72.1074V72.0956C232.016 71.6777 231.94 71.3066 231.788 70.9824C231.639 70.6581 231.424 70.4042 231.143 70.2206C230.866 70.037 230.532 69.9453 230.141 69.9453C229.75 69.9453 229.418 70.037 229.145 70.2206C228.875 70.4042 228.668 70.6581 228.524 70.9824C228.383 71.3066 228.313 71.6777 228.313 72.0956V72.1074C228.313 72.5253 228.383 72.8945 228.524 73.2148C228.668 73.5351 228.875 73.787 229.145 73.9706C229.418 74.1503 229.75 74.2402 230.141 74.2402ZM234.958 75.4706V66.6464H235.977V70.1035H236.071C236.231 69.7675 236.461 69.5078 236.762 69.3242C237.063 69.1367 237.446 69.0429 237.911 69.0429C238.383 69.0429 238.784 69.1347 239.112 69.3183C239.44 69.498 239.69 69.7617 239.862 70.1093C240.034 70.457 240.12 70.8808 240.12 71.3808V75.4706H239.1V71.6269C239.1 71.0566 238.979 70.6347 238.737 70.3613C238.499 70.0839 238.127 69.9453 237.624 69.9453C237.288 69.9453 236.997 70.0175 236.75 70.162C236.504 70.3066 236.313 70.5117 236.176 70.7773C236.043 71.0429 235.977 71.3613 235.977 71.7324V75.4706H234.958ZM244.209 75.5175C243.561 75.5175 243.09 75.3867 242.797 75.1249C242.508 74.8632 242.364 74.4316 242.364 73.83V69.998H241.368V69.1542H242.364V67.5195H243.418V69.1542H244.801V69.998H243.418V73.5722C243.418 73.9433 243.489 74.2109 243.629 74.3749C243.77 74.5351 244.004 74.6152 244.333 74.6152C244.422 74.6152 244.499 74.6132 244.561 74.6093C244.627 74.6054 244.708 74.5995 244.801 74.5917V75.4589C244.704 75.4745 244.606 75.4882 244.508 75.4999C244.411 75.5117 244.311 75.5175 244.209 75.5175ZM248.375 75.582C247.907 75.582 247.493 75.5117 247.133 75.371C246.774 75.2265 246.485 75.0253 246.266 74.7675C246.051 74.5097 245.924 74.207 245.885 73.8593H246.928C247.014 74.121 247.182 74.332 247.432 74.4921C247.682 74.6523 248.008 74.7324 248.411 74.7324C248.696 74.7324 248.946 74.6913 249.161 74.6093C249.379 74.5234 249.551 74.4081 249.676 74.2636C249.801 74.1152 249.864 73.9453 249.864 73.7538V73.7421C249.864 73.5273 249.778 73.3456 249.606 73.1972C249.434 73.0449 249.153 72.9218 248.762 72.8281L247.784 72.5937C247.389 72.4999 247.065 72.3788 246.811 72.2304C246.557 72.0781 246.37 71.8925 246.249 71.6738C246.127 71.4511 246.067 71.1894 246.067 70.8886V70.8828C246.067 70.5312 246.168 70.2167 246.372 69.9394C246.579 69.662 246.86 69.4433 247.215 69.2831C247.571 69.123 247.971 69.0429 248.417 69.0429C248.858 69.0429 249.249 69.1132 249.588 69.2538C249.932 69.3906 250.208 69.5859 250.415 69.8398C250.625 70.0937 250.754 70.3925 250.801 70.7363H249.799C249.733 70.4863 249.581 70.2831 249.342 70.1269C249.104 69.9706 248.793 69.8925 248.411 69.8925C248.161 69.8925 247.938 69.9335 247.743 70.0156C247.547 70.0937 247.393 70.2031 247.28 70.3437C247.167 70.4843 247.11 70.6484 247.11 70.8359V70.8476C247.11 70.9882 247.147 71.1132 247.221 71.2226C247.295 71.332 247.411 71.4277 247.567 71.5097C247.723 71.5917 247.924 71.664 248.17 71.7265L249.143 71.9609C249.737 72.1054 250.178 72.3124 250.467 72.582C250.76 72.8515 250.907 73.2128 250.907 73.666V73.6777C250.907 74.0527 250.795 74.3847 250.573 74.6738C250.35 74.9589 250.047 75.1816 249.665 75.3417C249.286 75.5019 248.856 75.582 248.375 75.582ZM258.459 75.582C257.862 75.582 257.344 75.4511 256.907 75.1894C256.473 74.9238 256.137 74.5468 255.899 74.0585C255.665 73.5703 255.547 72.9902 255.547 72.3183V72.3066C255.547 71.6308 255.665 71.0488 255.899 70.5605C256.137 70.0722 256.473 69.6972 256.907 69.4355C257.344 69.1738 257.862 69.0429 258.459 69.0429C259.061 69.0429 259.579 69.1738 260.012 69.4355C260.446 69.6972 260.78 70.0722 261.014 70.5605C261.252 71.0488 261.372 71.6308 261.372 72.3066V72.3183C261.372 72.9902 261.252 73.5703 261.014 74.0585C260.78 74.5468 260.446 74.9238 260.012 75.1894C259.579 75.4511 259.061 75.582 258.459 75.582ZM258.459 74.6796C258.858 74.6796 259.196 74.5859 259.473 74.3984C259.75 74.2109 259.961 73.9413 260.106 73.5898C260.254 73.2382 260.329 72.8144 260.329 72.3183V72.3066C260.329 71.8066 260.254 71.3808 260.106 71.0292C259.961 70.6777 259.75 70.4101 259.473 70.2265C259.196 70.039 258.858 69.9453 258.459 69.9453C258.061 69.9453 257.723 70.039 257.446 70.2265C257.168 70.4101 256.956 70.6777 256.807 71.0292C256.663 71.3808 256.59 71.8066 256.59 72.3066V72.3183C256.59 72.8144 256.663 73.2382 256.807 73.5898C256.956 73.9413 257.168 74.2109 257.446 74.3984C257.723 74.5859 258.061 74.6796 258.459 74.6796ZM262.954 75.4706V69.1542H263.973V70.1035H264.067C264.227 69.7675 264.458 69.5078 264.758 69.3242C265.059 69.1367 265.442 69.0429 265.907 69.0429C266.618 69.0429 267.163 69.246 267.542 69.6523C267.924 70.0546 268.116 70.6308 268.116 71.3808V75.4706H267.096V71.6269C267.096 71.0566 266.975 70.6347 266.733 70.3613C266.495 70.0839 266.124 69.9453 265.62 69.9453C265.284 69.9453 264.993 70.0175 264.747 70.162C264.5 70.3066 264.309 70.5117 264.172 70.7773C264.04 71.0429 263.973 71.3613 263.973 71.7324V75.4706H262.954ZM71.1528 94.6855C71.0864 94.6855 71.0122 94.6816 70.9302 94.6738C70.8481 94.6699 70.772 94.662 70.7017 94.6503V93.8124C70.7642 93.8242 70.8325 93.832 70.9067 93.8359C70.981 93.8398 71.0532 93.8417 71.1235 93.8417C71.4126 93.8417 71.6489 93.7675 71.8325 93.6191C72.02 93.4706 72.1704 93.2148 72.2837 92.8515L72.4009 92.4765L70.063 86.1542H71.1528L73.0981 91.9902L72.6938 91.3515H73.1743L72.77 91.9902L74.7095 86.1542H75.7817L73.3149 92.8574C73.1431 93.33 72.9614 93.6992 72.77 93.9648C72.5786 94.2304 72.354 94.416 72.0962 94.5214C71.8423 94.6308 71.5278 94.6855 71.1528 94.6855ZM79.4907 92.582C78.8931 92.582 78.3755 92.4511 77.938 92.1894C77.5044 91.9238 77.1685 91.5468 76.9302 91.0585C76.6958 90.5703 76.5786 89.9902 76.5786 89.3183V89.3066C76.5786 88.6308 76.6958 88.0488 76.9302 87.5605C77.1685 87.0722 77.5044 86.6972 77.938 86.4355C78.3755 86.1738 78.8931 86.0429 79.4907 86.0429C80.0923 86.0429 80.6099 86.1738 81.0435 86.4355C81.4771 86.6972 81.811 87.0722 82.0454 87.5605C82.2837 88.0488 82.4028 88.6308 82.4028 89.3066V89.3183C82.4028 89.9902 82.2837 90.5703 82.0454 91.0585C81.811 91.5468 81.4771 91.9238 81.0435 92.1894C80.6099 92.4511 80.0923 92.582 79.4907 92.582ZM79.4907 91.6796C79.8892 91.6796 80.2271 91.5859 80.5044 91.3984C80.7817 91.2109 80.9927 90.9413 81.1372 90.5898C81.2856 90.2382 81.3599 89.8144 81.3599 89.3183V89.3066C81.3599 88.8066 81.2856 88.3808 81.1372 88.0292C80.9927 87.6777 80.7817 87.4101 80.5044 87.2265C80.2271 87.039 79.8892 86.9453 79.4907 86.9453C79.0923 86.9453 78.7544 87.039 78.4771 87.2265C78.1997 87.4101 77.9868 87.6777 77.8384 88.0292C77.6938 88.3808 77.6216 88.8066 77.6216 89.3066V89.3183C77.6216 89.8144 77.6938 90.2382 77.8384 90.5898C77.9868 90.9413 78.1997 91.2109 78.4771 91.3984C78.7544 91.5859 79.0923 91.6796 79.4907 91.6796ZM86.1001 92.582C85.6235 92.582 85.2231 92.4921 84.8989 92.3124C84.5747 92.1288 84.3306 91.8632 84.1665 91.5156C84.0063 91.164 83.9263 90.7402 83.9263 90.2441V86.1542H84.9458V89.998C84.9458 90.5644 85.0552 90.9863 85.2739 91.2636C85.4966 91.541 85.8599 91.6796 86.3638 91.6796C86.6411 91.6796 86.8853 91.6386 87.0962 91.5566C87.311 91.4745 87.4907 91.3574 87.6353 91.205C87.7798 91.0488 87.8872 90.8613 87.9575 90.6425C88.0317 90.4199 88.0688 90.1699 88.0688 89.8925V86.1542H89.0884V92.4706H88.0688V91.5273H87.9751C87.8735 91.7499 87.7349 91.9413 87.5591 92.1015C87.3833 92.2578 87.1724 92.3769 86.9263 92.4589C86.6841 92.541 86.4087 92.582 86.1001 92.582ZM90.9927 92.4706V86.1542H92.0122V87.0917H92.106C92.2271 86.7597 92.4321 86.5019 92.7212 86.3183C93.0103 86.1347 93.3677 86.0429 93.7935 86.0429C93.8911 86.0429 93.9868 86.0488 94.0806 86.0605C94.1782 86.0683 94.2524 86.0761 94.3032 86.0839V87.0742C94.1978 87.0546 94.0942 87.041 93.9927 87.0331C93.895 87.0214 93.7896 87.0156 93.6763 87.0156C93.3521 87.0156 93.0649 87.08 92.8149 87.2089C92.5649 87.3378 92.3677 87.5175 92.2231 87.748C92.0825 87.9785 92.0122 88.248 92.0122 88.5566V92.4706H90.9927ZM98.938 94.58V86.1542H99.9575V87.162H100.051C100.18 86.9277 100.342 86.7285 100.538 86.5644C100.733 86.3964 100.956 86.2675 101.206 86.1777C101.456 86.0878 101.727 86.0429 102.02 86.0429C102.555 86.0429 103.02 86.1796 103.415 86.4531C103.813 86.7226 104.122 87.1015 104.34 87.5898C104.559 88.0781 104.668 88.6503 104.668 89.3066V89.3183C104.668 89.9785 104.559 90.5527 104.34 91.041C104.122 91.5292 103.813 91.9081 103.415 92.1777C103.02 92.4472 102.555 92.582 102.02 92.582C101.731 92.582 101.458 92.537 101.2 92.4472C100.946 92.3535 100.719 92.2245 100.52 92.0605C100.325 91.8964 100.168 91.7011 100.051 91.4745H99.9575V94.58H98.938ZM101.786 91.6796C102.172 91.6796 102.502 91.5859 102.776 91.3984C103.049 91.207 103.258 90.9355 103.403 90.5839C103.551 90.2285 103.625 89.8066 103.625 89.3183V89.3066C103.625 88.8144 103.551 88.3925 103.403 88.041C103.258 87.6894 103.049 87.4199 102.776 87.2324C102.502 87.041 102.172 86.9453 101.786 86.9453C101.403 86.9453 101.073 87.041 100.795 87.2324C100.518 87.4238 100.305 87.6953 100.157 88.0468C100.008 88.3984 99.9341 88.8183 99.9341 89.3066V89.3183C99.9341 89.8027 100.008 90.2226 100.157 90.5781C100.305 90.9296 100.518 91.2011 100.795 91.3925C101.073 91.5839 101.403 91.6796 101.786 91.6796ZM108.84 92.582C108.239 92.582 107.721 92.4492 107.288 92.1835C106.858 91.9179 106.526 91.5429 106.292 91.0585C106.061 90.5703 105.946 89.996 105.946 89.3359V89.33C105.946 88.6777 106.061 88.1054 106.292 87.6132C106.526 87.121 106.856 86.7363 107.282 86.4589C107.708 86.1816 108.206 86.0429 108.776 86.0429C109.35 86.0429 109.842 86.1757 110.252 86.4413C110.667 86.707 110.983 87.0781 111.202 87.5546C111.424 88.0273 111.536 88.5781 111.536 89.207V89.6054H106.473V88.791H111.014L110.51 89.5351V89.1308C110.51 88.6347 110.436 88.2265 110.288 87.9062C110.139 87.5859 109.934 87.3476 109.672 87.1913C109.411 87.0312 109.11 86.9511 108.77 86.9511C108.43 86.9511 108.125 87.0351 107.856 87.2031C107.59 87.3671 107.379 87.6113 107.223 87.9355C107.067 88.2597 106.989 88.6581 106.989 89.1308V89.5351C106.989 89.9843 107.065 90.3691 107.217 90.6894C107.37 91.0058 107.586 91.2499 107.868 91.4218C108.149 91.5898 108.481 91.6738 108.864 91.6738C109.149 91.6738 109.397 91.6347 109.608 91.5566C109.819 91.4785 109.993 91.3788 110.129 91.2578C110.266 91.1367 110.362 91.0136 110.417 90.8886L110.44 90.8359H111.459L111.448 90.8828C111.393 91.0976 111.295 91.3066 111.155 91.5097C111.018 91.7089 110.84 91.8906 110.622 92.0546C110.403 92.2148 110.143 92.3437 109.842 92.4413C109.545 92.5351 109.211 92.582 108.84 92.582ZM113.118 92.4706V86.1542H114.137V87.0917H114.231C114.352 86.7597 114.557 86.5019 114.846 86.3183C115.135 86.1347 115.493 86.0429 115.918 86.0429C116.016 86.0429 116.112 86.0488 116.206 86.0605C116.303 86.0683 116.377 86.0761 116.428 86.0839V87.0742C116.323 87.0546 116.219 87.041 116.118 87.0331C116.02 87.0214 115.915 87.0156 115.801 87.0156C115.477 87.0156 115.19 87.08 114.94 87.2089C114.69 87.3378 114.493 87.5175 114.348 87.748C114.208 87.9785 114.137 88.248 114.137 88.5566V92.4706H113.118ZM118.461 92.4706V86.998H117.413V86.1542H118.461V85.4511C118.461 85.0292 118.53 84.6816 118.667 84.4081C118.807 84.1308 119.014 83.9257 119.288 83.7929C119.561 83.6562 119.897 83.5878 120.295 83.5878C120.42 83.5878 120.538 83.5937 120.647 83.6054C120.76 83.6132 120.87 83.6269 120.975 83.6464V84.4609C120.913 84.4492 120.84 84.4413 120.758 84.4374C120.676 84.4335 120.59 84.4316 120.5 84.4316C120.137 84.4316 119.875 84.5195 119.715 84.6953C119.559 84.871 119.481 85.1328 119.481 85.4804V86.1542H120.917V86.998H119.481V92.4706H118.461ZM124.725 92.582C124.127 92.582 123.61 92.4511 123.172 92.1894C122.739 91.9238 122.403 91.5468 122.165 91.0585C121.93 90.5703 121.813 89.9902 121.813 89.3183V89.3066C121.813 88.6308 121.93 88.0488 122.165 87.5605C122.403 87.0722 122.739 86.6972 123.172 86.4355C123.61 86.1738 124.127 86.0429 124.725 86.0429C125.327 86.0429 125.844 86.1738 126.278 86.4355C126.711 86.6972 127.045 87.0722 127.28 87.5605C127.518 88.0488 127.637 88.6308 127.637 89.3066V89.3183C127.637 89.9902 127.518 90.5703 127.28 91.0585C127.045 91.5468 126.711 91.9238 126.278 92.1894C125.844 92.4511 125.327 92.582 124.725 92.582ZM124.725 91.6796C125.124 91.6796 125.461 91.5859 125.739 91.3984C126.016 91.2109 126.227 90.9413 126.372 90.5898C126.52 90.2382 126.594 89.8144 126.594 89.3183V89.3066C126.594 88.8066 126.52 88.3808 126.372 88.0292C126.227 87.6777 126.016 87.4101 125.739 87.2265C125.461 87.039 125.124 86.9453 124.725 86.9453C124.327 86.9453 123.989 87.039 123.711 87.2265C123.434 87.4101 123.221 87.6777 123.073 88.0292C122.928 88.3808 122.856 88.8066 122.856 89.3066V89.3183C122.856 89.8144 122.928 90.2382 123.073 90.5898C123.221 90.9413 123.434 91.2109 123.711 91.3984C123.989 91.5859 124.327 91.6796 124.725 91.6796ZM129.219 92.4706V86.1542H130.239V87.0917H130.333C130.454 86.7597 130.659 86.5019 130.948 86.3183C131.237 86.1347 131.594 86.0429 132.02 86.0429C132.118 86.0429 132.213 86.0488 132.307 86.0605C132.405 86.0683 132.479 86.0761 132.53 86.0839V87.0742C132.424 87.0546 132.321 87.041 132.219 87.0331C132.122 87.0214 132.016 87.0156 131.903 87.0156C131.579 87.0156 131.292 87.08 131.042 87.2089C130.792 87.3378 130.594 87.5175 130.45 87.748C130.309 87.9785 130.239 88.248 130.239 88.5566V92.4706H129.219ZM133.907 92.4706V86.1542H134.926V87.1152H135.02C135.161 86.7753 135.375 86.5117 135.665 86.3242C135.958 86.1367 136.311 86.0429 136.725 86.0429C137.01 86.0429 137.266 86.0898 137.493 86.1835C137.719 86.2773 137.915 86.4081 138.079 86.5761C138.243 86.7402 138.374 86.9316 138.471 87.1503H138.565C138.678 86.9277 138.831 86.7343 139.022 86.5703C139.213 86.4023 139.434 86.2734 139.684 86.1835C139.938 86.0898 140.209 86.0429 140.499 86.0429C140.928 86.0429 141.292 86.123 141.588 86.2831C141.889 86.4433 142.118 86.6777 142.274 86.9863C142.43 87.291 142.508 87.664 142.508 88.1054V92.4706H141.489V88.3398C141.489 88.0273 141.44 87.7695 141.342 87.5663C141.249 87.3593 141.104 87.205 140.909 87.1035C140.713 86.998 140.467 86.9453 140.17 86.9453C139.877 86.9453 139.622 87.0117 139.403 87.1445C139.184 87.2773 139.014 87.455 138.893 87.6777C138.772 87.8964 138.711 88.1406 138.711 88.4101V92.4706H137.692V88.1816C137.692 87.9316 137.637 87.7148 137.528 87.5312C137.422 87.3437 137.27 87.1992 137.071 87.0976C136.875 86.996 136.645 86.9453 136.379 86.9453C136.106 86.9453 135.858 87.0175 135.635 87.162C135.417 87.3066 135.243 87.5019 135.114 87.748C134.989 87.9902 134.926 88.2597 134.926 88.5566V92.4706H133.907ZM146.083 92.582C145.684 92.582 145.325 92.5058 145.004 92.3535C144.688 92.2011 144.436 91.9843 144.249 91.7031C144.065 91.4218 143.973 91.0898 143.973 90.707V90.6953C143.973 90.3203 144.063 89.9999 144.243 89.7343C144.422 89.4648 144.684 89.2538 145.028 89.1015C145.372 88.9492 145.788 88.8593 146.276 88.832L148.596 88.6913V89.5058L146.399 89.6464C145.918 89.6738 145.567 89.7734 145.344 89.9453C145.125 90.1171 145.016 90.3593 145.016 90.6718V90.6835C145.016 91.0038 145.137 91.2538 145.379 91.4335C145.622 91.6093 145.926 91.6972 146.293 91.6972C146.641 91.6972 146.95 91.6288 147.219 91.4921C147.489 91.3515 147.7 91.162 147.852 90.9238C148.008 90.6855 148.086 90.416 148.086 90.1152V88.1464C148.086 87.7558 147.967 87.4589 147.729 87.2558C147.495 87.0488 147.141 86.9453 146.668 86.9453C146.29 86.9453 145.979 87.0136 145.737 87.1503C145.495 87.2831 145.333 87.4726 145.25 87.7187L145.245 87.7363H144.225L144.231 87.7011C144.286 87.3691 144.422 87.08 144.641 86.8339C144.864 86.5839 145.151 86.3906 145.502 86.2538C145.854 86.1132 146.254 86.0429 146.704 86.0429C147.219 86.0429 147.655 86.1269 148.01 86.2949C148.37 86.4628 148.641 86.705 148.825 87.0214C149.012 87.3339 149.106 87.7089 149.106 88.1464V92.4706H148.086V91.539H147.993C147.86 91.7617 147.698 91.9511 147.506 92.1074C147.319 92.2636 147.106 92.3828 146.868 92.4648C146.629 92.5429 146.368 92.582 146.083 92.582ZM150.969 92.4706V86.1542H151.989V87.1035H152.083C152.243 86.7675 152.473 86.5078 152.774 86.3242C153.075 86.1367 153.458 86.0429 153.922 86.0429C154.633 86.0429 155.178 86.246 155.557 86.6523C155.94 87.0546 156.131 87.6308 156.131 88.3808V92.4706H155.112V88.6269C155.112 88.0566 154.991 87.6347 154.749 87.3613C154.51 87.0839 154.139 86.9453 153.635 86.9453C153.299 86.9453 153.008 87.0175 152.762 87.162C152.516 87.3066 152.325 87.5117 152.188 87.7773C152.055 88.0429 151.989 88.3613 151.989 88.7324V92.4706H150.969ZM160.561 92.582C159.971 92.582 159.459 92.4472 159.026 92.1777C158.592 91.9081 158.256 91.5273 158.018 91.0351C157.78 90.5429 157.661 89.9628 157.661 89.2949V89.2831C157.661 88.6269 157.778 88.0566 158.012 87.5722C158.25 87.0878 158.586 86.7128 159.02 86.4472C159.454 86.1777 159.965 86.0429 160.555 86.0429C161.067 86.0429 161.508 86.1328 161.879 86.3124C162.25 86.4921 162.547 86.7343 162.77 87.039C162.993 87.3398 163.135 87.6777 163.198 88.0527L163.204 88.0878H162.19L162.184 88.0703C162.106 87.7578 161.928 87.4921 161.651 87.2734C161.374 87.0546 161.008 86.9453 160.555 86.9453C160.176 86.9453 159.848 87.041 159.571 87.2324C159.293 87.4238 159.079 87.6953 158.926 88.0468C158.778 88.3945 158.704 88.8066 158.704 89.2831V89.2949C158.704 89.7792 158.78 90.2011 158.932 90.5605C159.084 90.916 159.299 91.1913 159.577 91.3867C159.854 91.582 160.18 91.6796 160.555 91.6796C160.981 91.6796 161.329 91.5878 161.598 91.4042C161.868 91.2206 162.061 90.9531 162.178 90.6015L162.19 90.5663L163.198 90.5605L163.186 90.6249C163.1 91.0038 162.948 91.3417 162.729 91.6386C162.51 91.9316 162.221 92.162 161.862 92.33C161.502 92.498 161.069 92.582 160.561 92.582ZM167.27 92.582C166.668 92.582 166.151 92.4492 165.717 92.1835C165.288 91.9179 164.956 91.5429 164.721 91.0585C164.491 90.5703 164.375 89.996 164.375 89.3359V89.33C164.375 88.6777 164.491 88.1054 164.721 87.6132C164.956 87.121 165.286 86.7363 165.711 86.4589C166.137 86.1816 166.635 86.0429 167.206 86.0429C167.78 86.0429 168.272 86.1757 168.682 86.4413C169.096 86.707 169.413 87.0781 169.631 87.5546C169.854 88.0273 169.965 88.5781 169.965 89.207V89.6054H164.903V88.791H169.444L168.94 89.5351V89.1308C168.94 88.6347 168.866 88.2265 168.717 87.9062C168.569 87.5859 168.364 87.3476 168.102 87.1913C167.84 87.0312 167.54 86.9511 167.2 86.9511C166.86 86.9511 166.555 87.0351 166.286 87.2031C166.02 87.3671 165.809 87.6113 165.653 87.9355C165.497 88.2597 165.418 88.6581 165.418 89.1308V89.5351C165.418 89.9843 165.495 90.3691 165.647 90.6894C165.799 91.0058 166.016 91.2499 166.297 91.4218C166.579 91.5898 166.911 91.6738 167.293 91.6738C167.579 91.6738 167.827 91.6347 168.038 91.5566C168.249 91.4785 168.422 91.3788 168.559 91.2578C168.696 91.1367 168.792 91.0136 168.846 90.8886L168.87 90.8359H169.889L169.877 90.8828C169.823 91.0976 169.725 91.3066 169.584 91.5097C169.448 91.7089 169.27 91.8906 169.051 92.0546C168.833 92.2148 168.573 92.3437 168.272 92.4413C167.975 92.5351 167.641 92.582 167.27 92.582Z" fill="black"/>
<path d="M70.0005 112.232C70.0005 106.433 74.7015 101.732 80.5005 101.732H141.5C147.299 101.732 152 106.433 152 112.232V112.232C152 118.031 147.299 122.732 141.5 122.732H80.5005C74.7015 122.732 70.0005 118.031 70.0005 112.232V112.232Z" fill="#8A7DFD"/>
<g clip-path="url(#clip1_3639_21886)">
<path d="M87.011 108.751L86.4781 108.218C86.4312 108.17 86.3754 108.133 86.314 108.107C86.2525 108.082 86.1866 108.068 86.12 108.068C86.0534 108.068 85.9874 108.082 85.926 108.107C85.8645 108.133 85.8087 108.17 85.7619 108.218L78.9831 114.997C78.9358 115.043 78.8982 115.099 78.8726 115.161C78.8469 115.222 78.8337 115.288 78.8337 115.355C78.8337 115.421 78.8469 115.487 78.8726 115.549C78.8982 115.61 78.9358 115.666 78.9831 115.713L79.5161 116.246C79.5627 116.294 79.6184 116.332 79.6799 116.358C79.7414 116.383 79.8074 116.397 79.8742 116.397C79.941 116.397 80.0071 116.383 80.0686 116.358C80.1301 116.332 80.1857 116.294 80.2323 116.246L87.011 109.467C87.0589 109.42 87.0969 109.365 87.1229 109.303C87.1488 109.242 87.1622 109.176 87.1622 109.109C87.1622 109.042 87.1488 108.976 87.1229 108.915C87.0969 108.853 87.0589 108.797 87.011 108.751Z" stroke="white" stroke-width="0.832768" stroke-linecap="round" stroke-linejoin="round"/>
<path d="M83.8298 110.15L85.079 111.399" stroke="white" stroke-width="0.832768" stroke-linecap="round" stroke-linejoin="round"/>
<path d="M80.0825 109.733V111.399" stroke="white" stroke-width="0.832768" stroke-linecap="round" stroke-linejoin="round"/>
<path d="M85.9119 113.065V114.73" stroke="white" stroke-width="0.832768" stroke-linecap="round" stroke-linejoin="round"/>
<path d="M82.1643 108.068V108.901" stroke="white" stroke-width="0.832768" stroke-linecap="round" stroke-linejoin="round"/>
<path d="M80.9153 110.566H79.2498" stroke="white" stroke-width="0.832768" stroke-linecap="round" stroke-linejoin="round"/>
<path d="M86.7446 113.897H85.0791" stroke="white" stroke-width="0.832768" stroke-linecap="round" stroke-linejoin="round"/>
<path d="M82.5808 108.484H81.748" stroke="white" stroke-width="0.832768" stroke-linecap="round" stroke-linejoin="round"/>
</g>
<path d="M93.3979 116.732L96.5151 108.277H97.3237V109.642H96.9897L94.5054 116.732H93.3979ZM94.8101 114.312L95.1382 113.415H98.9585L99.2866 114.312H94.8101ZM99.5679 116.732L97.0835 109.642V108.277H97.5581L100.675 116.732H99.5679ZM102.158 116.732V108.277H103.212V116.732H102.158ZM112.148 116.931C111.382 116.931 110.72 116.751 110.162 116.392C109.603 116.033 109.171 115.523 108.867 114.863C108.566 114.202 108.416 113.419 108.416 112.513V112.501C108.416 111.591 108.566 110.806 108.867 110.146C109.171 109.486 109.601 108.976 110.156 108.617C110.714 108.257 111.376 108.077 112.142 108.077C112.736 108.077 113.275 108.195 113.759 108.429C114.248 108.659 114.65 108.982 114.966 109.396C115.283 109.806 115.482 110.281 115.564 110.82L115.558 110.831H114.498L114.492 110.82C114.398 110.456 114.24 110.144 114.017 109.882C113.794 109.617 113.523 109.411 113.203 109.267C112.886 109.122 112.533 109.05 112.142 109.05C111.603 109.05 111.134 109.191 110.736 109.472C110.341 109.753 110.037 110.152 109.822 110.667C109.607 111.183 109.5 111.794 109.5 112.501V112.513C109.5 113.216 109.607 113.826 109.822 114.341C110.037 114.857 110.341 115.255 110.736 115.536C111.134 115.818 111.605 115.958 112.148 115.958C112.542 115.958 112.9 115.896 113.22 115.771C113.541 115.642 113.81 115.46 114.029 115.226C114.248 114.988 114.4 114.706 114.486 114.382L114.498 114.37H115.564V114.382C115.47 114.898 115.267 115.347 114.955 115.73C114.642 116.109 114.246 116.404 113.765 116.615C113.289 116.826 112.75 116.931 112.148 116.931ZM119.8 116.843C119.203 116.843 118.685 116.712 118.248 116.451C117.814 116.185 117.478 115.808 117.24 115.32C117.005 114.831 116.888 114.251 116.888 113.579V113.568C116.888 112.892 117.005 112.31 117.24 111.822C117.478 111.333 117.814 110.958 118.248 110.697C118.685 110.435 119.203 110.304 119.8 110.304C120.402 110.304 120.919 110.435 121.353 110.697C121.787 110.958 122.121 111.333 122.355 111.822C122.593 112.31 122.712 112.892 122.712 113.568V113.579C122.712 114.251 122.593 114.831 122.355 115.32C122.121 115.808 121.787 116.185 121.353 116.451C120.919 116.712 120.402 116.843 119.8 116.843ZM119.8 115.941C120.199 115.941 120.537 115.847 120.814 115.659C121.091 115.472 121.302 115.202 121.447 114.851C121.595 114.499 121.669 114.076 121.669 113.579V113.568C121.669 113.068 121.595 112.642 121.447 112.29C121.302 111.939 121.091 111.671 120.814 111.488C120.537 111.3 120.199 111.206 119.8 111.206C119.402 111.206 119.064 111.3 118.787 111.488C118.509 111.671 118.296 111.939 118.148 112.29C118.003 112.642 117.931 113.068 117.931 113.568V113.579C117.931 114.076 118.003 114.499 118.148 114.851C118.296 115.202 118.509 115.472 118.787 115.659C119.064 115.847 119.402 115.941 119.8 115.941ZM126.029 116.843C125.63 116.843 125.271 116.767 124.951 116.615C124.634 116.462 124.382 116.245 124.195 115.964C124.011 115.683 123.919 115.351 123.919 114.968V114.956C123.919 114.581 124.009 114.261 124.189 113.995C124.369 113.726 124.63 113.515 124.974 113.363C125.318 113.21 125.734 113.12 126.222 113.093L128.542 112.952V113.767L126.345 113.908C125.865 113.935 125.513 114.034 125.291 114.206C125.072 114.378 124.962 114.62 124.962 114.933V114.945C124.962 115.265 125.083 115.515 125.326 115.695C125.568 115.87 125.873 115.958 126.24 115.958C126.587 115.958 126.896 115.89 127.166 115.753C127.435 115.613 127.646 115.423 127.798 115.185C127.955 114.947 128.033 114.677 128.033 114.376V112.408C128.033 112.017 127.914 111.72 127.675 111.517C127.441 111.31 127.087 111.206 126.615 111.206C126.236 111.206 125.925 111.275 125.683 111.411C125.441 111.544 125.279 111.734 125.197 111.98L125.191 111.997H124.171L124.177 111.962C124.232 111.63 124.369 111.341 124.587 111.095C124.81 110.845 125.097 110.652 125.449 110.515C125.8 110.374 126.201 110.304 126.65 110.304C127.166 110.304 127.601 110.388 127.957 110.556C128.316 110.724 128.587 110.966 128.771 111.283C128.958 111.595 129.052 111.97 129.052 112.408V116.732H128.033V115.8H127.939C127.806 116.023 127.644 116.212 127.453 116.368C127.265 116.525 127.052 116.644 126.814 116.726C126.576 116.804 126.314 116.843 126.029 116.843ZM133.5 116.843C132.91 116.843 132.398 116.708 131.964 116.439C131.531 116.169 131.195 115.788 130.957 115.296C130.718 114.804 130.599 114.224 130.599 113.556V113.544C130.599 112.888 130.716 112.318 130.951 111.833C131.189 111.349 131.525 110.974 131.958 110.708C132.392 110.439 132.904 110.304 133.494 110.304C134.005 110.304 134.447 110.394 134.818 110.574C135.189 110.753 135.486 110.995 135.708 111.3C135.931 111.601 136.074 111.939 136.136 112.314L136.142 112.349H135.128L135.123 112.331C135.044 112.019 134.867 111.753 134.589 111.534C134.312 111.316 133.947 111.206 133.494 111.206C133.115 111.206 132.787 111.302 132.509 111.493C132.232 111.685 132.017 111.956 131.865 112.308C131.716 112.656 131.642 113.068 131.642 113.544V113.556C131.642 114.04 131.718 114.462 131.871 114.822C132.023 115.177 132.238 115.452 132.515 115.648C132.792 115.843 133.119 115.941 133.494 115.941C133.919 115.941 134.267 115.849 134.537 115.665C134.806 115.482 135 115.214 135.117 114.863L135.128 114.827L136.136 114.822L136.125 114.886C136.039 115.265 135.886 115.603 135.667 115.9C135.449 116.193 135.16 116.423 134.8 116.591C134.441 116.759 134.007 116.843 133.5 116.843ZM137.689 116.732V107.908H138.708V111.365H138.802C138.962 111.029 139.193 110.769 139.494 110.585C139.794 110.398 140.177 110.304 140.642 110.304C141.115 110.304 141.515 110.396 141.843 110.579C142.171 110.759 142.421 111.023 142.593 111.37C142.765 111.718 142.851 112.142 142.851 112.642V116.732H141.832V112.888C141.832 112.318 141.71 111.896 141.468 111.622C141.23 111.345 140.859 111.206 140.355 111.206C140.019 111.206 139.728 111.279 139.482 111.423C139.236 111.568 139.044 111.773 138.908 112.038C138.775 112.304 138.708 112.622 138.708 112.993V116.732H137.689Z" fill="white"/>
<defs>
<clipPath id="clip0_3639_21886">
<rect width="8.72444" height="9.99321" fill="white" transform="translate(277.149 32.9705)"/>
</clipPath>
<clipPath id="clip1_3639_21886">
<rect width="9.99321" height="9.99321" fill="white" transform="translate(78.0005 107.235)"/>
</clipPath>
</defs>
</svg>
