<svg preserveAspectRatio="none" width="100%" height="100%" overflow="visible" style="display: block;" viewBox="0 0 90 24" fill="none" xmlns="http://www.w3.org/2000/svg">
<g id="Frame 1000004295">
<path id="Vector" d="M20.4286 1H1.56652C0.702232 1 0 1.71205 0 2.58616V21.4138C0 22.2879 0.702232 23 1.56652 23H20.4286C21.2929 23 22 22.2879 22 21.4138V2.58616C22 1.71205 21.2929 1 20.4286 1ZM6.64911 19.8571H3.38839V9.35804H6.65402V19.8571H6.64911ZM5.01875 7.92411C3.97277 7.92411 3.12812 7.07455 3.12812 6.03348C3.12812 4.99241 3.97277 4.14286 5.01875 4.14286C6.05982 4.14286 6.90937 4.99241 6.90937 6.03348C6.90937 7.07946 6.06473 7.92411 5.01875 7.92411ZM18.8719 19.8571H15.6112V14.75C15.6112 13.5321 15.5866 11.9656 13.917 11.9656C12.2179 11.9656 11.9576 13.2915 11.9576 14.6616V19.8571H8.69688V9.35804H11.825V10.792H11.8692C12.3062 9.96696 13.3719 9.09777 14.958 9.09777C18.258 9.09777 18.8719 11.2732 18.8719 14.1018V19.8571Z" fill="var(--fill-0, #6D5DFD)"/>
<g id="lucide/github">
<path id="Vector_2" d="M47 22V18C47.1391 16.7473 46.7799 15.4901 46 14.5C49 14.5 52 12.5 52 9C52.08 7.75 51.73 6.52 51 5.5C51.28 4.35 51.28 3.15 51 2C51 2 50 2 48 3.5C45.36 3 42.64 3 40 3.5C38 2 37 2 37 2C36.7 3.15 36.7 4.35 37 5.5C36.2719 6.51588 35.9185 7.75279 36 9C36 12.5 39 14.5 42 14.5C41.61 14.99 41.32 15.55 41.15 16.15C40.98 16.75 40.93 17.38 41 18M41 18V22M41 18C36.49 20 36 16 34 16" stroke="var(--stroke-0, #6D5DFD)" stroke-width="2" stroke-linecap="round" stroke-linejoin="round"/>
</g>
<g id="lucide/globe">
<path id="Vector_3" d="M88 12C88 17.5228 83.5228 22 78 22M88 12C88 6.47715 83.5228 2 78 2M88 12H68M78 22C72.4772 22 68 17.5228 68 12M78 22C75.4322 19.3038 74 15.7233 74 12C74 8.27674 75.4322 4.69615 78 2M78 22C80.5678 19.3038 82 15.7233 82 12C82 8.27674 80.5678 4.69615 78 2M68 12C68 6.47715 72.4772 2 78 2" stroke="var(--stroke-0, #6D5DFD)" stroke-width="2" stroke-linecap="round" stroke-linejoin="round"/>
</g>
</g>
</svg>
