<svg preserveAspectRatio="none" width="100%" height="100%" overflow="visible" style="display: block;" viewBox="0 0 56 24" fill="none" xmlns="http://www.w3.org/2000/svg">
<g id="Frame 1000004295">
<path id="Vector" d="M20.4286 1H1.56652C0.702232 1 0 1.71205 0 2.58616V21.4138C0 22.2879 0.702232 23 1.56652 23H20.4286C21.2929 23 22 22.2879 22 21.4138V2.58616C22 1.71205 21.2929 1 20.4286 1ZM6.64911 19.8571H3.38839V9.35804H6.65402V19.8571H6.64911ZM5.01875 7.92411C3.97277 7.92411 3.12812 7.07455 3.12812 6.03348C3.12812 4.99241 3.97277 4.14286 5.01875 4.14286C6.05982 4.14286 6.90937 4.99241 6.90937 6.03348C6.90937 7.07946 6.06473 7.92411 5.01875 7.92411ZM18.8719 19.8571H15.6112V14.75C15.6112 13.5321 15.5866 11.9656 13.917 11.9656C12.2179 11.9656 11.9576 13.2915 11.9576 14.6616V19.8571H8.69688V9.35804H11.825V10.792H11.8692C12.3062 9.96696 13.3719 9.09777 14.958 9.09777C18.258 9.09777 18.8719 11.2732 18.8719 14.1018V19.8571Z" fill="var(--fill-0, #6D5DFD)"/>
<g id="lucide/globe">
<path id="Vector_2" d="M54 12C54 17.5228 49.5228 22 44 22M54 12C54 6.47715 49.5228 2 44 2M54 12H34M44 22C38.4772 22 34 17.5228 34 12M44 22C41.4322 19.3038 40 15.7233 40 12C40 8.27674 41.4322 4.69615 44 2M44 22C46.5678 19.3038 48 15.7233 48 12C48 8.27674 46.5678 4.69615 44 2M34 12C34 6.47715 38.4772 2 44 2" stroke="var(--stroke-0, #6D5DFD)" stroke-width="2" stroke-linecap="round" stroke-linejoin="round"/>
</g>
</g>
</svg>
